<?xml version="1.0" standalone="no"?><!DOCTYPE svg PUBLIC "-//W3C//DTD SVG 1.1//EN" "http://www.w3.org/Graphics/SVG/1.1/DTD/svg11.dtd"><svg t="1659859671229" class="icon" viewBox="0 0 1024 1024" version="1.1" xmlns="http://www.w3.org/2000/svg" p-id="3511" xmlns:xlink="http://www.w3.org/1999/xlink" width="48" height="48"><defs><style type="text/css">@font-face { font-family: feedback-iconfont; src: url("//at.alicdn.com/t/font_1031158_u69w8yhxdu.woff2?t=1630033759944") format("woff2"), url("//at.alicdn.com/t/font_1031158_u69w8yhxdu.woff?t=1630033759944") format("woff"), url("//at.alicdn.com/t/font_1031158_u69w8yhxdu.ttf?t=1630033759944") format("truetype"); }
</style></defs><path d="M525.32 512.52m-389.4 0a389.4 389.4 0 1 0 778.8 0 389.4 389.4 0 1 0-778.8 0Z" fill="#D3D0EA" p-id="3512"></path><path d="M509.68 931.51a417.46 417.46 0 0 1-286.34-113.1 8.29 8.29 0 0 1 11.34-12.11 400.93 400.93 0 0 0 275 108.63c181.33 0 341.06-122.08 388.43-296.87a8.29 8.29 0 1 1 16 4.34 418.6 418.6 0 0 1-404.43 309.11zM99.36 538.91a8.29 8.29 0 0 1-8.28-7.91c-0.26-6.11-0.4-12.32-0.4-18.45a419.13 419.13 0 0 1 616.45-369.67A422.45 422.45 0 0 1 854.21 274a8.29 8.29 0 0 1-13.63 9.45 402.88 402.88 0 0 0-330.9-173.36c-221.89 0-402.41 180.52-402.41 402.41 0 5.89 0.13 11.86 0.38 17.73a8.29 8.29 0 0 1-7.93 8.64z" fill="#050505" p-id="3513"></path><path d="M616.77 691.17c9.86 23.82 27.61 51.46 57.55 46.27 10.17-1.76 19.42-7.3 26.85-14.47 28.45-27.43 28.53-71.09 20.11-106.92" fill="#FFFFFF" p-id="3514"></path><path d="M667.2 743.35c-17.28 0-38.71-10-55.31-50.16a5.28 5.28 0 1 1 9.76-4c13.34 32.23 30.76 46.72 51.77 43.09 10.61-1.84 19-8.12 24.08-13.06 30.2-29.12 24.64-76.35 18.64-101.91a5.28 5.28 0 1 1 10.28-2.41c6.52 27.74 12.38 79.18-21.58 111.93-8.88 8.56-19.12 14.05-29.61 15.87a47 47 0 0 1-8.03 0.65z" fill="" p-id="3515"></path><path d="M362.68 242.54a185.43 185.43 0 0 1 88.15-5.75c46.14 8.07 82.69 39.91 127.71 50.43 37.59 8.78 76.43 5.07 114.53 9.13 31 3.31 60.43 11.82 87.93 26.76 49.79 27.05 90.27 73.25 101.7 130A171.2 171.2 0 0 1 886 492c-2.31 76.66-41.45 128.81-115 148.92-33.69 9.21-69.22 14.61-99.13 32.71s-66.11 60.65-36.09 123.12c-8.87 1.4-101.91 0.2-103 4.55 14.48-62.16-27.84-82.25-54.45-84.44-22.91-1.89-46.31 1.76-68.75-3.27-40.24-9-57.88-41.86-78.54-74-17.11-26.63-32.8-54.26-48.26-81.89-18.58-33.21-36.71-66.72-54-100.63-8.11-15.92-7.69-42.84 0.77-59.44 5.1-19.61 14.16-36.86 22.56-55.29 19.56-43 55.68-78.35 99.47-95.78q5.48-2.22 11.1-4.02z" fill="#FCF7F7" p-id="3516"></path><path d="M526.57 810.38a5 5 0 0 0 2.67-3.37L518 804.28c5.66-24.15 3.22-43.68-7.25-58.06-14.24-19.55-38.08-22.92-45-23.49-9.15-0.75-18.67-0.63-27.88-0.53-14.94 0.18-30.39 0.36-45.5-3-41.26-9.18-61.51-41-81.1-71.75q-2.7-4.24-5.43-8.49c-18.47-28.59-35.38-58.31-51.12-86.29-21.57-38.36-40.25-73-57.1-105.87-8.73-17.05-2.27-40.82 2.44-58.18 0.5-1.83 1-3.58 1.41-5.24 5.39-20.58 11.63-42.35 20.7-62.16 21.6-47.16 61-84.92 108.21-103.61 4-1.57 8-3 12.12-4.33a202.56 202.56 0 0 1 95.75-6.28c26.55 4.61 50.2 16.41 73.08 27.82 19.82 9.89 40.31 20.11 62.09 25.17 23.9 5.55 49 6.24 73.26 6.92 15.4 0.43 31.32 0.87 47 2.53 34.48 3.65 66.44 13.32 95 28.74a235.69 235.69 0 0 1 70.63 58c20.32 25 33.67 52.77 39.66 82.42a184.72 184.72 0 0 1 3.54 42.22c-1.27 41.51-12.62 76.45-33.74 103.85-21.34 27.68-52.29 47.2-92 58-8.36 2.28-16.92 4.36-25.21 6.37-26.81 6.51-54.54 13.25-78 27.38-12.26 7.38-71.59 47.92-35.91 121.82l3.4 7-7.73 1.22c-3.55 0.56-15.33 0.73-35.84 1-24.48 0.38-65.36 0.9-70.91 2.92z m-78.73-99.88c6.22 0 12.52 0.13 18.77 0.64 8.21 0.67 36.34 4.69 53.49 28.23 11.17 15.33 14.84 35 11 58.59 4.26-0.42 10-0.77 17.61-1.06 14.46-0.55 32.61-0.79 48.62-1 9.7-0.12 19.61-0.25 26.34-0.44-11.58-28-12-54.6-1.23-79.14 11.77-26.81 33.32-42.73 45.12-49.83 25-15 53.6-22 81.26-28.72 8.21-2 16.7-4.06 24.9-6.29 74.26-20.22 114.78-72.44 117.18-151a173.1 173.1 0 0 0-3.31-39.56c-11-54.29-49-102.59-104.42-132.5-27.22-14.7-57.73-23.92-90.7-27.41-15.21-1.61-30.9-2-46.08-2.47-24.84-0.69-50.53-1.4-75.57-7.21-23.12-5.37-44.24-15.9-64.65-26.09-22.12-11-45-22.45-69.88-26.77a190.89 190.89 0 0 0-90.32 5.88c-3.83 1.22-7.66 2.59-11.37 4.06C290.16 246 253 281.59 232.64 326c-8.7 19-14.77 40.19-20 60.26-0.44 1.7-0.93 3.48-1.44 5.35-4.22 15.53-10 36.79-3.32 49.84 16.78 32.75 35.39 67.25 56.89 105.47 15.65 27.83 32.46 57.37 50.75 85.68q2.76 4.28 5.47 8.56c19.16 30.09 37.26 58.51 73.82 66.65 13.8 3.07 27.91 2.91 42.84 2.73 3.35 0 6.76-0.04 10.19-0.04z" fill="" p-id="3517"></path><path d="M204.68 394.1s-88.05 170-60 260.8 103 121.3 149.48 112.69 69.59-75.42 52.84-158.94-65.25-115.41-65.25-115.41" fill="#D3D0EA" p-id="3518"></path><path d="M225.26 407.67S122.12 562.88 150 654s102.41 121.8 148.5 113.18 69-75.66 52.37-159.5S286 491.8 286 491.8" fill="#FCF7F7" p-id="3519"></path><path d="M278.48 774.78c-22.59 0-47.36-7.54-69.07-21.38-22.93-14.63-53.74-43.3-70.27-96.78-12-38.84-5.55-94.89 19.2-166.61a786.49 786.49 0 0 1 40.53-95.73 5.81 5.81 0 0 1 10.29 5.38c-0.86 1.65-86 166.11-58.93 253.52 24.38 78.87 85.1 110 128.35 110a79.58 79.58 0 0 0 14.52-1.28c13.71-2.54 25.28-10.67 34.4-24.15 19.06-28.18 24.22-76 13.8-127.92-16-79.86-62.29-111.4-62.76-111.71a5.81 5.81 0 0 1 6.4-9.7c2.06 1.36 50.72 34.21 67.75 119.12 11.18 55.73 5.5 105.56-15.57 136.72-10.77 15.93-25.26 26-41.9 29.06a91.83 91.83 0 0 1-16.74 1.46z" fill="" p-id="3520"></path><path d="M183.13 627.48C198.78 694.74 230.89 738 272.55 735c53.52-3.84 56-71 32.72-136-20.65-57.57-50.49-114.8-84.22-107s-53.58 68.23-37.92 135.48z" fill="" p-id="3521"></path><path d="M268.57 739.53c-19.88 0-38.42-10-53.87-29.2s-27.79-47.44-35.81-81.86c-7.59-32.62-7.41-65.36 0.51-92.18 7.85-26.58 22.67-44.23 40.66-48.42 17.27-4 34.62 6.31 51.57 30.69 12.87 18.53 25.57 45.12 37.73 79 18 50.09 19 94.83 2.82 119.69-8.74 13.42-22 20.85-39.32 22.1q-2.15 0.18-4.29 0.18z m-81.22-113c15.82 67.93 47.56 106.91 84.88 104.21 14.5-1 25.48-7.16 32.67-18.18 14.5-22.26 13.08-65.18-3.72-112-26.17-73-54.28-110-79.15-104.19-29.15 6.79-50.56 61.92-34.67 130.17zM773 461.93c-0.21 15.51-21.33 27.8-47.18 27.46s-46.72-7.32-46.43-28.71c0.27-19.94 21.33-27.8 47.18-27.46s46.63 13.2 46.43 28.71z" fill="" p-id="3522"></path><path d="M726.88 494.59h-1.14c-15-0.2-26.92-2.58-35.38-7.07-10.74-5.7-16.34-15-16.18-26.91 0.28-20.84 19.89-33 52.46-32.59 13.43 0.18 26.09 3.54 35.65 9.45 10.38 6.42 16 15.14 15.91 24.54s-6 18-16.56 24.1c-9.45 5.48-21.75 8.48-34.76 8.48z m-1.81-56.19c-13.16 0-40.22 2.43-40.49 22.33-0.11 8.08 3.28 13.67 10.65 17.58 7 3.71 17.31 5.68 30.65 5.86 11.56 0.16 22.41-2.36 30.52-7.08 7.27-4.23 11.32-9.65 11.39-15.25 0.08-5.6-3.82-11.12-11-15.55-8-4.93-18.75-7.74-30.32-7.89zM384.07 269.79a5.81 5.81 0 0 1-5-8.67c0.8-1.41 19.91-34.72 42.51-41.66 19.2-5.9 27.27 6 27.6 6.5l-9.71 6.37 0.09 0.14c-0.4-0.53-4.19-5.1-14.58-1.91-15.09 4.63-31 27.77-35.81 36.29a5.81 5.81 0 0 1-5.1 2.94zM478.15 235.3a5.81 5.81 0 0 1-5.77-6.55c0.15-1.12 3.82-27.47 26.06-30.54 21.58-3 38.95 24.23 39.68 25.39a5.81 5.81 0 1 1-9.83 6.18c-3.88-6.13-16.53-21.69-28.26-20.07-13.43 1.85-16.11 20.36-16.13 20.55a5.82 5.82 0 0 1-5.75 5.04zM448.93 400.85a5.28 5.28 0 0 1-5.27-5c-0.11-2.22-2.38-54.45 31.87-61.7a27.39 27.39 0 0 1 22.24 4.3c16.62 11.67 20.73 40.12 20.9 41.32a5.28 5.28 0 0 1-10.46 1.45c0-0.25-3.66-25.13-16.52-34.14a17 17 0 0 0-14-2.6c-25.52 5.4-23.53 50.38-23.51 50.83a5.28 5.28 0 0 1-5 5.54zM545.23 395.94a5.28 5.28 0 0 1-5.24-4.65c-1-8.06 4.58-25.34 13.46-36.4 5.05-6.3 10.52-9.78 16.24-10.34 19.21-1.88 22.8 28.81 23.15 32.32a5.28 5.28 0 0 1-10.51 1c-0.75-7.45-4.76-23.54-11.6-22.85-2.71 0.27-5.92 2.56-9 6.44-7.26 9-11.81 23.54-11.21 28.53a5.28 5.28 0 0 1-5.25 5.91z" fill="" p-id="3523"></path><path d="M458.333823 427.423957a15.99 24.14 3.79 1 0 3.191296-48.174412 15.99 24.14 3.79 1 0-3.191296 48.174412Z" fill="" p-id="3524"></path><path d="M538.64092 397.567516a15.95 13.17 87.08 1 0 26.305801-1.3418 15.95 13.17 87.08 1 0-26.305801 1.3418Z" fill="" p-id="3525"></path><path d="M439.24 657a5.2 5.2 0 0 1-1-10.31c0.69-0.14 15.26-3.23 16.53-17.75a5.2 5.2 0 1 1 10.36 0.9c-1.57 18-17 25.58-25 27.07a5.24 5.24 0 0 1-0.89 0.09z" fill="" p-id="3526"></path><path d="M552.77 689.81c-5.79 0-10.78-4-14.83-7.2-1.91-1.52-4.28-3.41-5.49-3.74-1.65-0.46-5.61 0.17-8.79 0.68-4.71 0.75-9.58 1.53-13.68 0.51-5.93-1.48-8.36-7-10.31-11.51-0.91-2.09-2.05-4.7-3.07-5.47s-4.68-0.28-7.53 0.17a34 34 0 0 1-10.14 0.55c-7.66-1.13-20-14.49-25-20.18a5.28 5.28 0 0 1 8-6.94c7.24 8.31 15.93 16.1 18.59 16.67a26.43 26.43 0 0 0 6.92-0.54c5.07-0.8 10.82-1.71 15.52 1.82 3.25 2.44 4.93 6.29 6.41 9.68 0.75 1.71 2.3 5.27 3.19 5.5 2 0.5 6-0.13 9.46-0.69 4.84-0.77 9.41-1.5 13.27-0.43 3.28 0.91 6.18 3.22 9.24 5.66 2.69 2.14 6.33 5.08 8.44 4.89 1.55-0.22 5.91-3.9 8.51-6.1 6-5.1 12.89-10.88 20.09-10.43 5 0.31 9.55 3.07 14.38 6 5.75 3.47 11.19 6.75 16.16 5.32 4.52-1.3 8.07-4.83 11.51-8.24 4.44-4.4 9.47-9.4 16.45-7.69a5.28 5.28 0 1 1-2.52 10.26c-1.22-0.3-4.15 2.6-6.49 4.93-4 3.94-8.91 8.83-16 10.88-9.41 2.71-17.8-2.36-24.54-6.43-3.53-2.13-7.18-4.34-9.59-4.49-3-0.18-8.54 4.52-12.61 8-5.16 4.36-9.62 8.13-14.4 8.55-0.42 0-0.79 0.01-1.15 0.01z" fill="" p-id="3527"></path><path d="M543 781.53c-0.65-1.16-9.73-5.43-10.87-6.05q-6.38-3.46-12.86-6.63c-9.37-4.6-28.87-16.48-37.89-8.1-2.41 2.24-4.05 5.37-5.45 8.55-11.41 25.88-8.84 57.69 5.14 83.25 2.66 4.85 6.64 10 11.49 9.62a12.38 12.38 0 0 0 5.47-2.31 226.67 226.67 0 0 0 29.61-21.68c4.43-3.93 9.63-8 12.9-13.29 3.47-5.59 4.15-13.48 4-20.31-0.15-7.65-1.38-15.3-1.51-22.95a0.25 0.25 0 0 0-0.03-0.1z" fill="#F42727" p-id="3528"></path><path d="M482 869.46c-4.78 0-11.32-2.38-17.47-12.53-17.59-29-19.07-65-3.87-93.89 1.91-3.63 4.38-7.77 8.26-10.94 12.41-10.16 33.14-1.18 46.86 4.75 1.64 0.71 3.15 1.37 4.49 1.91 5.4 2.21 10.67 4.49 15.67 6.76l1.68 0.7c10.74 4.42 12.49 5.51 13.7 7.44a5.58 5.58 0 0 1 0.86 2.82v0.2c0 3.89 0.25 7.77 0.55 11.88s0.61 8.28 0.58 12.53c-0.06 10.78-2.2 18.93-6.54 24.89-4 5.47-9.65 9.84-14.64 13.68l-2.51 1.95c-10.18 8-21.72 15.53-37.42 24.46a22 22 0 0 1-8.9 3.31c-0.42 0.05-0.86 0.08-1.3 0.08z m1.23-111.22c-3 0-5.63 0.62-7.52 2.17-2.39 2-4.16 5-5.56 7.64-13.47 25.59-12.11 57.52 3.55 83.34 1.41 2.32 5.06 7.64 8.65 7.35a13.66 13.66 0 0 0 4.57-2c15.22-8.67 26.36-15.94 36.11-23.58l2.59-2c4.64-3.57 9.44-7.27 12.51-11.49 2.93-4 4.44-10.31 4.49-18.66 0-3.83-0.26-7.64-0.55-11.68-0.23-3.19-0.47-6.46-0.56-9.78-1.65-0.78-4.31-1.93-8-3.44-1-0.41-1.73-0.72-2-0.86-4.87-2.22-10-4.43-15.29-6.59-1.39-0.57-3-1.25-4.69-2-7.41-3.17-19.53-8.43-28.31-8.43z" fill="" p-id="3529"></path><path d="M611.53 789.92a90 90 0 0 1 16.76-16.69c8.49-6.33 20.26-11.07 30.36-14.6 17.3-6 29.79 2.47 35.4 18.21 7 19.55 3 43.3-7.11 61.74a20 20 0 0 1-4.63 6.14c-3.82 3.11-9.34 3.64-14.26 2.93a110.78 110.78 0 0 1-18.46-4.79c-14.5-4.79-31.11-12.46-38.82-25.44-3.86-6.5-5-14.47-1-21.36 0.67-1.19 0.87-4.99 1.76-6.14z" fill="#F42727" p-id="3530"></path><path d="M674.5 852.23a30.74 30.74 0 0 1-5.16-0.45 116.36 116.36 0 0 1-20.19-5.88c-21.94-8.06-36.15-18.27-43.44-31.23-5.44-9.65-6-20-1.48-28.51a39.24 39.24 0 0 1 2.8-4.47c5.12-7.12 12.44-12.92 18.89-18l0.83-0.66a155.88 155.88 0 0 1 29.25-18.4c8.88-4.27 17.57-4.86 25.13-1.7 8.59 3.58 15.53 12 19.54 23.65 7.46 21.69 4.89 49.57-6.72 72.75a25.91 25.91 0 0 1-5.87 8.27c-3.45 3.05-8.17 4.63-13.58 4.63z m-3.5-101.8a25.16 25.16 0 0 0-10.84 2.77 146.36 146.36 0 0 0-27.5 17.24l-0.83 0.66c-6 4.73-12.73 10.1-17.08 16.14a29.77 29.77 0 0 0-2.12 3.38c-2.94 5.55-2.45 12.61 1.37 19.38 6.05 10.75 19 19.82 38.43 27a108 108 0 0 0 18.51 5.43c4.61 0.79 8.6 0.07 10.93-2a17.16 17.16 0 0 0 3.62-5.35c10.51-21 12.89-46 6.23-65.4-3.12-9.06-8.17-15.45-14.21-18a16.74 16.74 0 0 0-6.51-1.25z m-60.11 34z" fill="" p-id="3531"></path><path d="M545.8 779.44c6.51-5.48 15.69-8.3 23.74-9 9.92-0.89 19.89 0.88 29.52 3.42 4.45 1.18 9 2.63 12.32 5.85 5.67 5.55 6.64 14.54 6.91 22 0.24 6.87 2.67 18.56-3.43 23.55a20.82 20.82 0 0 1-7.7 3.48 103.25 103.25 0 0 1-35.42 3.53c-9.91-0.73-25.43-1.65-30.86-11.57-4.68-8.55-5.56-21.94-2.33-31.08a23.57 23.57 0 0 1 7.25-10.18z" fill="#F42727" p-id="3532"></path><path d="M579.44 836.75q-4 0-8-0.29h-0.65c-10.82-0.79-27.16-2-33.57-13.68-5.21-9.51-6.3-24-2.61-34.47a27.64 27.64 0 0 1 8.51-12c6.46-5.44 16-9.08 26.05-10 11.74-1.06 23.29 1.51 31 3.54 4.73 1.25 10.11 2.92 14.18 6.9 6.64 6.51 7.85 16.23 8.16 24.88 0 1.16 0.16 2.53 0.28 4 0.61 7.38 1.45 17.48-5.24 22.95a24.52 24.52 0 0 1-9.21 4.27 106.42 106.42 0 0 1-28.9 3.9z m-4.44-62.4c-1.72 0-3.4 0.08-5.05 0.23-8.31 0.75-16.32 3.76-21.43 8.06a19.43 19.43 0 0 0-6 8.4c-2.88 8.16-2 20.32 2.06 27.69 4.22 7.72 17.84 8.71 26.85 9.37h0.65a98.65 98.65 0 0 0 34-3.38 17.5 17.5 0 0 0 6.19-2.7c3.29-2.69 2.66-10.26 2.2-15.79-0.13-1.56-0.25-3-0.3-4.38-0.25-7-1.11-14.76-5.66-19.21-2.61-2.56-6.6-3.77-10.47-4.79-9.04-2.37-16.4-3.5-23.04-3.5z m-29.17 5.09z" fill="" p-id="3533"></path><path d="M492.657969 785.096287m-6.047438 1.172217a6.16 6.16 0 1 0 12.094876-2.344434 6.16 6.16 0 1 0-12.094876 2.344434Z" fill="#070707" p-id="3534"></path><path d="M492.68 795.39a10.34 10.34 0 0 1-1.95-20.48 10.33 10.33 0 0 1 3.93 20.29 10.49 10.49 0 0 1-1.98 0.19z m-0.36-12.29a2 2 0 1 0 2.33 1.57 2 2 0 0 0-2.33-1.57z" fill="" p-id="3535"></path><path d="M491.591071 829.624453m-3.347689 0.648906a3.41 3.41 0 1 0 6.695378-1.297812 3.41 3.41 0 1 0-6.695378 1.297812Z" fill="#070707" p-id="3536"></path><path d="M491.62 837.17a7.6 7.6 0 1 1 1.46-0.14 7.71 7.71 0 0 1-1.46 0.14z m0-8.35h-0.14a0.76 0.76 0 0 0-0.6 0.89 0.76 0.76 0 0 0 0.89 0.6 0.76 0.76 0 0 0-0.15-1.51z" fill="" p-id="3537"></path><path d="M583.403295 791.529616m-3.779649 0.732636a3.85 3.85 0 1 0 7.559298-1.465271 3.85 3.85 0 1 0-7.559298 1.465271Z" fill="#070707" p-id="3538"></path><path d="M583.45 799.5a8 8 0 0 1-1.53-15.9 8 8 0 1 1 1.53 15.9z m-0.06-8.34a0.32 0.32 0 0 0 0.12 0.64z m0 0l0.12 0.64a0.32 0.32 0 0 0 0.25-0.38 0.33 0.33 0 0 0-0.38-0.26z" fill="" p-id="3539"></path><path d="M566.686885 810.701m-1.668936 0.323502a1.7 1.7 0 1 0 3.337872-0.647003 1.7 1.7 0 1 0-3.337872 0.647003Z" fill="#070707" p-id="3540"></path><path d="M566.72 816.53a5.89 5.89 0 1 1 1.13-0.11 5.91 5.91 0 0 1-1.13 0.11z m-0.46-8.3a2.47 2.47 0 0 0 0.94 4.85 2.47 2.47 0 0 0-0.94-4.85l0.15 0.75z" fill="" p-id="3541"></path><path d="M592.877002 811.640221m-1.590398 0.308278a1.62 1.62 0 1 0 3.180796-0.616556 1.62 1.62 0 1 0-3.180796 0.616556Z" fill="#070707" p-id="3542"></path><path d="M592.91 817.38a5.81 5.81 0 1 1 1.11-0.11 5.83 5.83 0 0 1-1.11 0.11z m0-8.35a2.61 2.61 0 0 0-0.49 0 2.56 2.56 0 0 0-0.94 4.63 2.56 2.56 0 1 0 1.43-4.67z" fill="" p-id="3543"></path><path d="M663.888089 777.57954m-4.211609 0.816366a4.29 4.29 0 1 0 8.423218-1.632731 4.29 4.29 0 1 0-8.423218 1.632731Z" fill="#070707" p-id="3544"></path><path d="M663.92 786a8.47 8.47 0 1 1 1.61-0.16 8.48 8.48 0 0 1-1.61 0.16z m0-8.58a0.13 0.13 0 0 0-0.09 0.14 0.11 0.11 0 0 0 0.14 0.09 0.13 0.13 0 0 0 0.09-0.13 0.12 0.12 0 0 0-0.13-0.11z" fill="" p-id="3545"></path><path d="M641.394531 812.874491m-2.886277 0.559467a2.94 2.94 0 1 0 5.772555-1.118934 2.94 2.94 0 1 0-5.772555 1.118934Z" fill="#070707" p-id="3546"></path><path d="M641.44 819.94a7.11 7.11 0 0 1-1.36-14.1 7.11 7.11 0 1 1 1.35 14.1z m-0.24-8.32a1.23 1.23 0 0 0 0.47 2.42z m0 0l0.47 2.42a1.23 1.23 0 0 0-0.47-2.42z" fill="" p-id="3547"></path><path d="M674.968291 808.029891m-3.086763 0.628009a3.15 3.15 0 1 0 6.173525-1.256018 3.15 3.15 0 1 0-6.173525 1.256018Z" fill="#070707" p-id="3548"></path><path d="M676.49 816.56A7.32 7.32 0 0 1 675.1 802a7.32 7.32 0 1 1 1.39 14.51z m-0.19-8.33a1 1 0 0 0 0.39 2z m0 0l0.39 2a1 1 0 0 0-0.39-2z" fill="" p-id="3549"></path><path d="M517.677405 811.404421m-1.90455 0.369172a1.94 1.94 0 1 0 3.809101-0.738345 1.94 1.94 0 1 0-3.809101 0.738345Z" fill="#070707" p-id="3550"></path><path d="M517.71 817.47a6.11 6.11 0 1 1 6-7.28 6.12 6.12 0 0 1-6 7.27z m1.92-6.48l-4.1 0.8a2.24 2.24 0 1 0 1.77-2.62 2.25 2.25 0 0 0-1.77 2.62z" fill="" p-id="3551"></path></svg>