<?xml version="1.0" standalone="no"?><!DOCTYPE svg PUBLIC "-//W3C//DTD SVG 1.1//EN" "http://www.w3.org/Graphics/SVG/1.1/DTD/svg11.dtd"><svg t="1659859644514" class="icon" viewBox="0 0 1024 1024" version="1.1" xmlns="http://www.w3.org/2000/svg" p-id="2283" xmlns:xlink="http://www.w3.org/1999/xlink" width="48" height="48"><defs><style type="text/css">@font-face { font-family: feedback-iconfont; src: url("//at.alicdn.com/t/font_1031158_u69w8yhxdu.woff2?t=1630033759944") format("woff2"), url("//at.alicdn.com/t/font_1031158_u69w8yhxdu.woff?t=1630033759944") format("woff"), url("//at.alicdn.com/t/font_1031158_u69w8yhxdu.ttf?t=1630033759944") format("truetype"); }
</style></defs><path d="M526.97 509.14m-389.4 0a389.4 389.4 0 1 0 778.8 0 389.4 389.4 0 1 0-778.8 0Z" fill="#CEB6B6" p-id="2284"></path><path d="M149 710.55a8.29 8.29 0 0 1-7.32-4.39 415.74 415.74 0 0 1-42.92-124.81 423 423 0 0 1-6.2-72.21 417.77 417.77 0 0 1 64.56-223.55c5.95-9.41 12.35-18.7 19-27.62a8.29 8.29 0 1 1 13.27 10 407.747 407.747 0 0 0-18.29 26.52 401.21 401.21 0 0 0-62 214.69 406.43 406.43 0 0 0 6 69.37 399.2 399.2 0 0 0 41.21 119.84 8.29 8.29 0 0 1-7.31 12.2zM511.55 928.14a415.42 415.42 0 0 1-177.2-39.21 8.29 8.29 0 0 1 7-15 399 399 0 0 0 170.18 37.65C733.44 911.55 914 731 914 509.14S733.44 106.73 511.55 106.73a402.34 402.34 0 0 0-200 53.11c-5.52 3.17-11 6.51-16.39 9.93a8.29 8.29 0 0 1-8.93-14c5.57-3.56 11.32-7 17.06-10.34a419.1 419.1 0 1 1 208.26 782.71z" fill="" p-id="2285"></path><path d="M622.55 165.5c-1.36-3.91-0.47-4.17-4.58-7.39-5-3.94-11.09-5.63-20.29-7.51-32-6.53-67.16 3.86-98.24 10.13-34.3 6.92-68.06 16.95-101.82 25.89-39.29 10.4-77.09 20.06-118.27 37-26.71 11-24.64 30.27 5.06 48.06 14.6 8.75 37.11 13 53.55 17.41 35.11 9.42 63.36 16.81 97.92 27.81 15.31 4.87 19.79 33.68 19.79 33.68l4.45 9.42L509 341.32s-0.78-21.08 1.59-34.11c1.13-6.19 9-12.35 13.21-16.54 9.12-9 18.85-17.54 28.58-26 15.42-13.35 32.79-25.79 47.12-40.69 12.66-13.1 29.83-39.06 23.05-58.48z m-84.9 45.67a8.31 8.31 0 0 1-0.64 0.93c-15.53 19.47-34.43 37-51.59 55.1-13.4 14.16-26.32 12.2-43.55 8.12-19.19-4.54-37.79-8.72-56.49-14.93-3.8-1.26-21.71-6.78-24.93-9.15-2.46-1.81 0.85-8.36 2.34-10.94 0.69-1.2 6.7-3.33 7.92-4 4.4-2.61 13.37-0.35 18.32-1.81 45.2-13.32 93.37-20.73 139.74-29.82 2.2-0.43 4.53-0.85 6.67-0.14 3.56 1.17 3.69 4.15 2.21 6.64z" fill="#692C91" p-id="2286"></path><path d="M447.49 377.19l-7.14-15.88-0.13-0.71c-1.15-6.35-6.45-23.51-17-26.56-13.68-4-27.73-7.74-41.3-11.37-22.37-6-45.51-12.19-67.93-19.57-3.49-1.15-7.08-2.27-10.87-3.45-15-4.68-30.55-9.51-43.45-17.32-15.08-9.14-24.13-23.65-23.62-37.89 0.45-12.53 8-23.19 21.38-30 33.57-17.14 71.4-27.54 107.96-37.61q9.26-2.55 18.38-5.1c35.83-10.09 72.43-19.19 108.78-27.06 4.51-1 9-2 13.75-3.09 29-6.62 61.85-14.13 92.22-6.92 8.75 2.08 15.57 5.17 20.82 9.44a31.21 31.21 0 0 1 10.28 14.5c8 24.18-11 48.44-26 64.58-10.4 11.22-22.24 21.22-33.68 30.89-5.65 4.77-11.49 9.71-17 14.62-11 9.88-20.81 18.84-30.21 28.52-0.87 0.89-1.87 1.86-2.94 2.9-3.57 3.45-9 8.67-9.64 12.4-1.9 10.48 3.28 28.25 5.44 34.21l2 5.49z m4-19.38l2.18 4.84L503 345.13c-2.43-8.11-6.19-23.41-4.15-34.69 1.35-7.41 7.81-13.65 13-18.67 1-0.94 1.89-1.82 2.68-2.64 9.66-9.94 19.65-19 30.77-29.06 5.6-5 11.51-10 17.23-14.87 11.18-9.44 22.74-19.21 32.66-29.91 20.32-21.92 28-39.28 23.45-53a19.54 19.54 0 0 0-6.58-9.12c-3.87-3.15-9.16-5.48-16.18-7.15-27.74-6.59-57.84 0.29-86.95 6.94-4.57 1-9.31 2.13-13.88 3.12-36.12 7.81-72.48 16.86-108.09 26.88q-9.14 2.57-18.45 5.12c-36 9.91-73.21 20.15-105.72 36.75-9.55 4.88-14.75 11.82-15.05 20.07-0.36 10 6.54 20.58 18 27.54 11.69 7.08 26.53 11.7 40.88 16.17 3.84 1.2 7.47 2.33 11.05 3.5 22.11 7.28 45.08 13.43 67.3 19.38 13.64 3.65 27.74 7.43 41.54 11.44 18.07 5.21 24.02 30.07 25 34.88zM458 283.4c-6.31 0-12.66-1.69-19.16-3.42-2.29-0.61-4.66-1.24-7.11-1.83a692.74 692.74 0 0 1-60.69-17.48c-1-0.33-2.08-0.64-3.26-1-3.62-1-7.73-2.15-11.07-4.69-5.23-4-7-10.89-4.09-16.06a14.69 14.69 0 0 1 5.33-5.16 71.3 71.3 0 0 1 16.52-7c36.91-11.54 75.93-19.32 113.66-26.86 11.6-2.31 23.59-4.71 35.24-7.16 2.51-0.53 6.31-1.33 10.15 0a10.34 10.34 0 0 1 6.58 6.08 11.24 11.24 0 0 1-1.13 9.65 15.44 15.44 0 0 1-1.11 1.66c-11.66 15.12-25.11 29.27-38.12 42.95-5.74 6-11.67 12.28-17.31 18.45-8.31 9.08-16.37 11.87-24.43 11.87z m-95.13-38.9a2.61 2.61 0 0 0 0.88 1.26c1.56 1.19 4.4 2 7.15 2.74 1.28 0.36 2.61 0.73 3.87 1.15a681.874 681.874 0 0 0 59.67 17.19c2.59 0.62 5 1.27 7.4 1.9 14.23 3.79 22.06 5.88 32-5 5.71-6.26 11.69-12.55 17.47-18.63 12.62-13.27 25.66-27 36.83-41.38-0.8 0.09-1.69 0.28-2.39 0.43-11.75 2.43-23.75 4.84-35.39 7.15-37.43 7.47-76.14 15.2-112.47 26.55-5.49 1.72-10 3.36-13.87 5.78a8.51 8.51 0 0 0-1.2 0.86z" fill="#050505" p-id="2287"></path><path d="M284.91 657.3c-26.16-22-75.78-67.79-111.93-45.06-25.26 15.88-17.48 48.46-8 71.43 7.28 17.69 16.26 34.61 25.74 51.1 7.45 13 13 26.79 21.8 39 19.67 27.42 57.88 56.71 95.58 53.79 21-1.62 41.8-15.75 45.26-34.79z" fill="#692C91" p-id="2288"></path><path d="M311.84 838.35c-36 0-72.81-31.49-95.4-61.67-6.4-8.55-11.32-17.77-16.08-26.68-2.67-5-5.44-10.19-8.4-15.09-12.82-21.28-21.74-38.15-28.92-54.71-21.64-49.92-6.2-72.4 10.57-82.47 40.42-24.28 92.61 18.55 123.79 44.14 2 1.64 3.9 3.2 5.7 4.66l1 0.81 65.26 134.73-0.34 1.86c-3.86 21.27-18.14 45.68-41.34 52.25a57.91 57.91 0 0 1-15.84 2.17zM200.17 602.19a39.19 39.19 0 0 0-20.57 5.5c-18.6 11.17-20.58 34-5.89 67.89 7 16.07 15.67 32.52 28.21 53.33 3.11 5.17 6 10.48 8.7 15.62 4.76 8.92 9.26 17.34 15.13 25.19 19.1 25.52 61.39 65.87 98.78 55.29 17.75-5 29.06-24.06 32.71-41.32l-62.46-129-4.78-3.85c-23.26-19.12-59.25-48.65-89.83-48.65z" fill="#020202" p-id="2289"></path><path d="M156 633.5c2.6-7.51 3.65-15.11 11.38-16.91 7.55-1.76 15 2.88 21.2 7.49a363 363 0 0 1 86.8 91.78c16.24 24.63 31.13 51.51 36.78 80.75 1.45 7.5 2.21 15.51-0.72 22.56-13.89 33.34-70.17-17.17-88.68-40.17S176 707.33 166 688s-12.2-41.92-10-54.5z" fill="#E7DAC3" p-id="2290"></path><path d="M295.73 836.06c-25.75 0-63.53-36-77.51-53.4-18.91-23.5-47.16-72.27-57.39-92-10.63-20.46-13-44.5-10.62-58.18l0.08-0.47 0.16-0.45c0.39-1.12 0.74-2.24 1.08-3.34 2.1-6.72 4.72-15.08 14.5-17.35s18.61 3 26 8.48a366.82 366.82 0 0 1 88.2 93.26c14.24 21.6 31.39 50.53 37.64 82.86 1.43 7.42 2.61 17.08-1.06 25.91-4.34 10.46-11.92 13.6-17.52 14.4a25 25 0 0 1-3.56 0.28z m-134.1-201.13c-1.95 12.26 0.68 33.32 9.55 50.38 10.68 20.56 38.57 68.22 56.13 90 14.68 18.25 49 49.06 68.1 49.06a15.55 15.55 0 0 0 2.22-0.15c2.44-0.35 6-1.49 8.39-7.32s1.5-13.4 0.38-19.21c-5.86-30.31-22.27-57.95-35.92-78.65a355.2 355.2 0 0 0-85.4-90.3c-5.24-3.88-11.29-7.69-16.41-6.5-3 0.7-4 3.15-6 9.46-0.34 1.09-0.67 2.16-1.04 3.23z" fill="#020202" p-id="2291"></path><path d="M790.32 537.36s17.86-83.54 53.85-78.56 27.2 116.2 21.69 157.58-29.72 137.75-69.23 133.67S772 708.38 772 708.38z" fill="#692C91" p-id="2292"></path><path d="M792.34 754.63a37.32 37.32 0 0 1-4.22-0.24c-16.61-1.89-28-8-33.85-18.05-7.68-13.23-2.76-28.6-1.29-32.53l16.71-174.51 0.07-0.34c0.81-3.7 20.33-90.42 67.55-83.61 21.36 3.08 34.08 27.59 37.78 72.84 3.32 40.49-1.45 83.66-3 95.93-2.7 21.48-10.55 57.18-23.79 87.1-15.5 35.06-34.78 53.41-55.96 53.41z m-11.16-223.5l-16.8 175.51-0.36 0.84c0 0.11-5.46 13.2 0.33 23.09 3.92 6.71 12.36 10.84 25.08 12.28a26 26 0 0 0 2.91 0.17c38.74 0 63-88.67 68.25-130.35 7.55-60.1 7.14-151.2-24.93-155.82-18.37-2.66-32.06 17-40.29 33.88a209.29 209.29 0 0 0-14.19 40.4z" fill="#020202" p-id="2293"></path><path d="M847.63 457.38c-9.48 3.86-10.28 12.59-12 22.06-7.75 42.08 1 85.21-6.51 127.3-6.39 35.72-24.94 67.91-29.93 104.2-1.09 7.93-1.6 16.29 1.5 23.68 9.84 23.48 33.31-8.47 41.81-26.62 14.5-31 25.85-87.5 27.92-141.75s-12-98-12-98-8.5-11.81-10.79-10.87z" fill="#E7DAC3" p-id="2294"></path><path d="M810.21 748.76h-0.28c-4.45-0.09-10.6-2.22-14.66-11.88-3.7-8.82-3-18.46-1.9-26.73 2.72-19.77 9.34-38.37 15.75-56.36 5.55-15.58 11.29-31.7 14.22-48.07 3.64-20.36 3.36-41.59 3.09-62.13-0.28-21.37-0.57-43.46 3.43-65.21 0.14-0.74 0.27-1.47 0.39-2.19 1.62-9.12 3.45-19.45 15.17-24.21 4.16-1.69 8.39-0.12 17.7 12.89l0.53 0.74 0.28 0.86c0.59 1.83 14.42 45.36 12.33 100-2.07 54.15-13.51 112-28.47 144-5 10.7-21.45 38.28-37.58 38.29z m37.25-284.7c-3.49 2.5-4.4 6.76-5.71 14.16q-0.2 1.13-0.41 2.27c-3.8 20.62-3.51 42.13-3.24 62.94 0.28 21.08 0.57 42.88-3.27 64.34-3.1 17.33-9 33.9-14.71 49.93-6.21 17.44-12.63 35.46-15.18 54-0.92 6.7-1.51 14.39 1.1 20.62 0.9 2.14 2.34 4.69 4.12 4.72h0.07c6.17 0 19.5-15.57 27-31.55 14.36-30.7 25.36-86.76 27.38-139.5 1.85-48.43-9.62-88.83-11.51-95.13a74.66 74.66 0 0 0-5.64-6.8z m2.36-1.28z" fill="#020202" p-id="2295"></path><path d="M479.82 344.92a306.25 306.25 0 0 1 30.54-6.67c81.51-13.46 163.33 12.49 216.29 77.11 31.06 37.9 50.67 84.09 63.37 131.42 14 52.29 17.67 110.56-5.49 160.86-22.38 48.61-70 82-118.32 101.71q-9.55 3.89-19.36 7.14c-57.63 19.09-122.25 24.27-182.25 15.36-43.37-6.44-83.93-21.08-115-53.17a148.44 148.44 0 0 1-11.33-13.16c-16.51-21.6-27.84-46.69-37.34-72.15-16.32-43.75-27.84-91.54-21.47-138.44C293.82 449 380.34 372 479.82 344.92z" fill="#CEB6B6" p-id="2296"></path><path d="M490.47 346.5c9.66-3.36 27.18-3.43 37.25-5.06 79.89-13 152.83 19.45 204.83 82.4 30.5 36.93 49.79 81.9 62.31 128 13.83 50.9 17.48 107.61-5.16 156.53-21.87 47.27-68.47 79.69-115.86 98.81q-9.36 3.78-19 6.92C598.4 832.56 535 837.52 476.21 828.77c-42.53-6.33-82.31-20.63-112.83-51.89a145.36 145.36 0 0 1-11.12-12.82c-16.21-21-26.32-45.47-35.67-70.27-16.06-42.59-22-91.74-17.63-134.25 10.6-103.45 98.66-180.7 191.51-213.04z" fill="#692C91" p-id="2297"></path><path d="M519.35 842.71a401 401 0 0 1-58.79-4.28c-51.22-7.61-89.93-25.55-118.33-54.87a154.74 154.74 0 0 1-11.77-13.67c-18.51-24.22-30.12-52.08-38.17-73.65C272.08 642.07 265 595.87 270.51 555c7-51.44 31.17-99.13 69.93-137.91 36.18-36.2 82.75-62.8 134.68-76.94a313.13 313.13 0 0 1 31.12-6.79c86.51-14.28 169.4 15.31 221.73 79.16 28.25 34.47 49.95 79.42 64.49 133.6C809.33 609 807.31 666 786.63 710.91c-20.16 43.79-63.28 81-121.41 104.66-6.41 2.61-13 5.06-19.72 7.27-39.68 13.16-83.04 19.87-126.15 19.87z m29.45-501.27a249.51 249.51 0 0 0-40.67 3.37 301.37 301.37 0 0 0-30 6.54C372 380.25 295 460.8 282 556.56c-5.29 38.93 1.63 83.29 21.16 135.63 7.77 20.81 18.93 47.65 36.52 70.66a143 143 0 0 0 10.89 12.64c26.56 27.41 63.1 44.25 111.7 51.46 59.61 8.85 123.38 3.48 179.57-15.13 6.43-2.13 12.82-4.49 19-7 32.08-13.08 89.71-43.3 115.24-98.76 24.68-53.61 16.43-114.93 5.15-156.93-14.11-52.57-35.05-96.06-62.25-129.25-41.4-50.53-103.09-78.44-170.18-78.44z" fill="#020202" p-id="2298"></path><path d="M489.14 375.24a218.58 218.58 0 0 1 70.38-9.87c81.17 2.35 148.71 49.88 182.58 122.35a305.52 305.52 0 0 1 28 111c2.75 46.54 1.48 97-33.17 132.36-23.78 24.25-56.93 36.51-89.27 46.92-45.35 14.57-93.09 27.1-141.08 26.56-32.75-0.37-66.17-8.06-93-26.88-27.06-19-45.72-48.17-57.28-79.16-31.35-84.12-33.3-186.71 28.89-257.2 27.12-30.72 64.07-53.8 103.95-66.08z" fill="#E7DAC3" p-id="2299"></path><path d="M509.58 810.39h-3.07c-37.56-0.43-70.85-10.09-96.27-27.94s-46.1-46.27-59.39-81.89c-17-45.57-24.27-92.66-21-136.16 3.75-50.14 20.9-92.84 51-126.92 27.34-31 65.2-55 106.61-67.8l1.72 5.58-1.72-5.58a223.48 223.48 0 0 1 72.26-10.13c81.85 2.37 152 49.36 187.7 125.72a313.44 313.44 0 0 1 28.54 113.13c2.93 49.61 0.75 100.52-34.83 136.79-25 25.49-59 37.87-91.65 48.36-41.48 13.3-90.39 26.84-139.9 26.84z m44.06-439.27a213.18 213.18 0 0 0-62.78 9.7c-39.38 12.13-75.36 35-101.29 64.37-53.49 60.59-63.87 154.52-27.77 251.27 12.46 33.41 31.54 59.83 55.16 76.42 29.67 20.83 65.15 25.54 89.69 25.82 48.88 0.54 97.81-13 139.23-26.28 31.28-10 63.75-21.83 86.89-45.42 32.39-33 34.29-81 31.51-127.92a301.66 301.66 0 0 0-27.47-108.88C703 417.92 636.7 373.44 559.35 371.2q-2.85-0.08-5.72-0.08z" fill="#020202" p-id="2300"></path><path d="M501.81 591.07c6.67 18.62-8.55 42.69-27.17 49.36s-43.87-1.54-50.54-20.16 7.77-40.6 26.39-47.27 44.65-0.55 51.32 18.07z" fill="#070707" p-id="2301"></path><path d="M460.89 648.57a51.71 51.71 0 0 1-18-3.27c-11.9-4.45-20.5-12.64-24.24-23.06-8-22.33 9.2-47.31 29.92-54.73 21.4-7.67 50.81-0.68 58.78 21.59 3.68 10.27 2 22.68-4.54 34-6.2 10.74-15.73 19-26.16 22.78a46.72 46.72 0 0 1-15.76 2.69z m5.17-72.32a40.68 40.68 0 0 0-13.6 2.25c-15.21 5.45-28.51 24-22.86 39.8 2.55 7.13 8.71 12.83 17.34 16.06 8.36 3.13 18 3.34 25.73 0.57s15.21-9.36 20-17.62 6.18-17.24 3.66-24.27c-3.99-11.04-17.24-16.79-30.27-16.79z" fill="#020202" p-id="2302"></path><path d="M703.48 547.2c7.29 17.29-1.17 36.71-23.39 46.07s-41.88 0.92-49.17-16.37 0.54-36.89 22.76-46.26 42.51-0.74 49.8 16.56z" fill="#070707" p-id="2303"></path><path d="M662.1 603.38c-16.33 0-30.46-8.64-37-24-9-21.39 2-44.3 26.11-54.48 11.93-5 24.38-5.68 35.06-1.85a38.94 38.94 0 0 1 23 21.74c8.93 21.17-2.32 44-26.73 54.3a52.72 52.72 0 0 1-20.44 4.29z m9.54-70.25a40 40 0 0 0-15.51 3.3c-18 7.59-25.8 22.87-19.41 38s23.22 20.5 40.94 13c18-7.59 26.24-23.15 20-37.85-4.44-10.58-14.37-16.45-26.02-16.45z" fill="#020202" p-id="2304"></path><path d="MNaN NaNmNaN NaNaNaN NaN NaN 1 0 NaN NaN NaN NaN NaN 1 0 NaN NaNZ" fill="#F9F9F9" p-id="2305"></path><path d="M667.683523 559.232146m-3.706569 20.395937a20.73 20.73 0 1 0 7.413139-40.791874 20.73 20.73 0 1 0-7.413139 40.791874Z" fill="#F9F9F9" p-id="2306"></path><path d="M555.46 634.69H555a5.25 5.25 0 0 1-4.79-5.65c0.07-0.86 1.94-21.18 19.78-27.77a36.14 36.14 0 0 1 38.77 9.56 5.25 5.25 0 1 1-7.65 7.21c-5.5-5.83-16-11.14-27.48-6.9s-12.89 18.2-12.95 18.79a5.27 5.27 0 0 1-5.22 4.76z" fill="#020202" p-id="2307"></path><path d="M514.06 706.51s56.44-0.71 86.89-9.52c28-8.1 68.88-33.87 68.88-33.87s-12 54.32-56 65.73-82.83-6.6-99.77-22.34z" fill="#020202" p-id="2308"></path><path d="M586.07 734.85c-30.75 0-58.25-12.23-73.68-26.53A2.46 2.46 0 0 1 514 704c0.56 0 56.46-0.81 86.23-9.42 27.34-7.91 67.84-33.33 68.25-33.59a2.46 2.46 0 0 1 3.72 2.62c-0.5 2.28-12.85 55.93-57.74 67.58a112.92 112.92 0 0 1-28.39 3.66z m-65.37-26c16.64 12.54 51.49 28.31 92.55 17.65 33.49-8.7 47.94-43.81 52.48-57.95-12.1 7.28-41.83 24.4-64.09 30.84-24.58 7.08-65.07 8.96-80.94 9.44z" fill="#020202" p-id="2309"></path><path d="M545.22 720.64s18.8-9.32 52.46-8 34.16 7 34.16 7-12.5 8.07-38.83 10.07-47.79-9.07-47.79-9.07z" fill="#ED4545" p-id="2310"></path><path d="M504.86 724.27a4.67 4.67 0 0 1-3.24-8c1.7-1.64 6.44-6.68 7.88-10.22 0.58-1.42-1.23-5.93-3.73-9.28a4.67 4.67 0 0 1 7.47-5.6c1.34 1.79 7.89 11.08 4.9 18.41-2.44 6-9.29 12.68-10.06 13.42a4.66 4.66 0 0 1-3.22 1.27zM677.16 670a4.66 4.66 0 0 1-1.89-0.4 29.37 29.37 0 0 1-7-4c-3.73-3.07-5.68-7.18-5.22-11a4.67 4.67 0 1 1 9.27 1.13 4.7 4.7 0 0 0 1.88 2.66 21.09 21.09 0 0 0 4.8 2.67 4.67 4.67 0 0 1-1.89 8.94z" fill="#020202" p-id="2311"></path></svg>