<?xml version="1.0" standalone="no"?><!DOCTYPE svg PUBLIC "-//W3C//DTD SVG 1.1//EN" "http://www.w3.org/Graphics/SVG/1.1/DTD/svg11.dtd"><svg t="1659859623921" class="icon" viewBox="0 0 1024 1024" version="1.1" xmlns="http://www.w3.org/2000/svg" p-id="1629" xmlns:xlink="http://www.w3.org/1999/xlink" width="48" height="48"><defs><style type="text/css">@font-face { font-family: feedback-iconfont; src: url("//at.alicdn.com/t/font_1031158_u69w8yhxdu.woff2?t=1630033759944") format("woff2"), url("//at.alicdn.com/t/font_1031158_u69w8yhxdu.woff?t=1630033759944") format("woff"), url("//at.alicdn.com/t/font_1031158_u69w8yhxdu.ttf?t=1630033759944") format("truetype"); }
</style></defs><path d="M518.34 514.82m-389.4 0a389.4 389.4 0 1 0 778.8 0 389.4 389.4 0 1 0-778.8 0Z" fill="#FFE6F9" p-id="1630"></path><path d="M224.07 824.64a8.26 8.26 0 0 1-5.63-2.21A419.06 419.06 0 0 1 697.9 143.86a422.6 422.6 0 0 1 146.35 127.9 8.29 8.29 0 0 1-13.5 9.63 403.52 403.52 0 0 0-327.83-169c-221.89 0-402.41 180.52-402.41 402.41A403.7 403.7 0 0 0 229.7 810.26a8.29 8.29 0 0 1-5.63 14.38zM502.92 933.81a420.51 420.51 0 0 1-104.46-13.13 8.29 8.29 0 1 1 4.12-16.06 403.92 403.92 0 0 0 100.34 12.61c199.82 0 371.16-149 398.57-346.61a8.29 8.29 0 0 1 16.43 2.28 419.08 419.08 0 0 1-415 360.91z" fill="" p-id="1631"></path><path d="M722.946209 293.4661m-36.264293 3.364137a36.42 36.42 0 1 0 72.528587-6.728274 36.42 36.42 0 1 0-72.528587 6.728274Z" fill="#ED1C24" p-id="1632"></path><path d="M717.68 331.67a47.51 47.51 0 1 1 4.46-0.21q-2.23 0.21-4.46 0.21z m0.15-83.22q-1.68 0-3.37 0.16a35.8 35.8 0 1 0 39 32.34 35.8 35.8 0 0 0-35.58-32.49z" fill="" p-id="1633"></path><path d="M337.46 839.41C242.3 790.65 173.94 695 163.24 579.77c-16.54-178.24 118.76-327.45 297-344C588.18 223.91 715 282.54 782.59 382.5c7.41 11-16.32-69.79 58.19-47.38 65.35 19.65 34.18 85.12 22.75 98.47 21.91 7.8 34.26 37.28 26.84 61-16.84 53.91-61 6.7-59.91 16.11q0.41 3.52 0.74 7.06C840.82 621.46 791.76 719 714 785.82" fill="#FFFFFF" p-id="1634"></path><path d="M334.81 844.58a328.16 328.16 0 0 1-120.93-106.79 334.65 334.65 0 0 1-56.42-157.49c-8.08-87.06 19.22-171.23 76.87-237 56.86-64.85 136.89-105.09 225.38-113.3a368.21 368.21 0 0 1 186.77 31.93c53.55 24.48 99 60.66 132.27 105.16 0.72-11.41 3.65-26.09 15.29-34.78 11-8.19 27.26-9.11 48.42-2.75 22.65 6.81 36.83 19.45 42.14 37.58 7.08 24.12-4.13 50.94-12.33 64.15 20.18 11.75 31.28 40.65 23.65 65.08-4.63 14.83-11.89 24.36-21.56 28.31-13.7 5.61-28-1.3-37.26-6.2 4.5 50.78-4.4 101.1-26.45 149.58-20.72 45.55-52.85 87.8-92.91 122.18l-7.56-8.81c81-69.52 124.08-167.86 115.25-263.08-0.22-2.32-0.46-4.65-0.73-6.92a6.84 6.84 0 0 1 2.81-6.62c3.81-2.59 7.63-0.55 13.41 2.55 7.78 4.17 19.54 10.46 29 6.58 6.32-2.58 11.32-9.66 14.87-21 6.58-21.08-4.71-47.24-23.24-53.83l-8-2.83 5.49-6.42c6.06-7.08 21.36-35.45 14.33-59.41-4.14-14.12-15.7-24.12-34.34-29.72-17.44-5.25-30.27-4.93-38.12 0.93-10.95 8.17-10.88 26-10.84 35.65 0 5.78 0 10.35-4.68 11.81-1.35 0.42-4.81 0.93-7.68-3.32-67.06-99.23-191.49-155.83-317-144.18C281.16 258.23 153 406.55 169 579.23c10.21 110 74.16 205.35 171.08 255z" fill="" p-id="1635"></path><path d="M527 254.91s-133.71-5.22-201.17 44.76c-76.75 56.83-111.6 112.27-130.61 169.82-12.8 38.77-29.65 164.73 51.78 269.27 90.56 112.26 166.28 85.7 216.3 86.82S518.34 813 518.34 813s-70.82-117.31-81-157.47C427.14 615 423.88 525.39 447 481.27s51.79-89.89 76-110.27 66-47 66-47z" fill="#32B3FF" p-id="1636"></path><path d="M533.06 263.4s-129.9-5.32-195.37 43.84c-74.45 55.91-108.23 110.49-126.62 167.18-12.39 38.19-28.59 162.3 50.62 265.43 88.12 110.75 161.64 84.67 210.23 85.84s53.48-12.29 53.48-12.29-62.19-59.24-78.85-155.29c-11.32-65.26-13.29-128.31 9.13-171.75s50.19-88.51 73.67-108.58 64-46.19 64-46.19z" fill="#32B3FF" p-id="1637"></path><path d="M539.65 835.65a5.63 5.63 0 0 1-3.47-1.2c-1.41-1.1-34.68-27.29-57-62-27.19-42.35-45.42-88.76-51.32-130.68-9.7-68.81 3.78-138.6 39-201.83C502.31 376.23 577 323.28 580.2 321.05a5.65 5.65 0 0 1 6.5 9.24c-0.75 0.53-75.8 53.72-110 115.12-34 61.06-47 128.41-37.67 194.76 5.69 40.35 23.32 85.15 49.64 126.16 21.24 33.08 54.1 59 54.43 59.23a5.65 5.65 0 0 1-3.48 10.1z" fill="" p-id="1638"></path><path d="M500.34 261.35c-1.23 20.79 27.32 62.13 86.31 80.48s102 11.52 103.57-14.71-13.44-53.2-78-76.15-109.89-23.27-111.88 10.38z" fill="#FFFFFF" p-id="1639"></path><path d="M645.67 357.93c-17.35 0-38.15-3.53-60.75-10.55-61.17-19-91.79-62.38-90.38-86.36 0.64-10.91 5.19-19.23 13.51-24.75 23.14-15.33 70.5-3.44 106.14 9.23 57.89 20.58 83.89 46.63 81.82 82-0.51 8.73-4.78 16.12-12.35 21.35-8.79 6.04-21.9 9.08-37.99 9.08z m-139.53-96.24c-0.43 7.24 4.29 21.23 19 36.83 11 11.68 30.92 27.71 63.23 37.76 39.57 12.31 73.55 13.45 88.68 3 4.65-3.22 7.06-7.3 7.36-12.48 1.08-18.5-5.42-45.91-74.11-70.33-46.87-16.66-80.9-20.39-95.84-10.49-5.18 3.43-7.91 8.58-8.33 15.75z" fill="" p-id="1640"></path><path d="M613.32 321.44h-2.68A6.21 6.21 0 0 1 611 309c11.52 0.35 28.67-2.22 30.91-8 3.64-9.36-4.87-20.45-5-20.56a6.21 6.21 0 0 1 9.73-7.73c0.54 0.67 13.07 16.71 6.8 32.8-5.56 14.49-30.57 15.93-40.12 15.93zM468.94 417.59a5.65 5.65 0 0 1-1.45-11.11c2.6-0.69 64.1-17 104.78-19.64 40.26-2.61 90.19-3.51 90.69-3.52h0.1a5.65 5.65 0 0 1 0.1 11.29c-0.5 0-50.17 0.9-90.16 3.5-39.57 2.57-102 19.12-102.6 19.29a5.66 5.66 0 0 1-1.46 0.19zM492.57 547.35a5.65 5.65 0 0 1-3.19-10.35c0.48-0.33 49.11-33.45 101-62.89 44.22-25.11 94-40.42 96.07-41.06a5.65 5.65 0 0 1 3.3 10.8c-0.5 0.15-50.69 15.61-93.79 40.08-51.46 29.22-99.7 62.07-100.18 62.4a5.63 5.63 0 0 1-3.21 1.02zM575.65 650.81a5.65 5.65 0 0 1-4.52-9c0.43-0.58 43.76-58.39 72.29-89.89 28.19-31.12 67-57.13 68.62-58.23a5.65 5.65 0 0 1 6.27 9.4c-0.39 0.26-39.29 26.35-66.51 56.41-28.18 31.11-71.19 88.5-71.62 89.08a5.64 5.64 0 0 1-4.53 2.23z" fill="" p-id="1641"></path><path d="M336 834.16s157.86-7.27 239.28-22.2c78.41-14.38 166.7-45 174.78-48 13.9-5.07 25.31 7.86 13.65 24.83-5.16 7.5-85.5 39-206 54.28A1259 1259 0 0 1 337.53 851c-9.1-0.26-19.76-11.18-1.53-16.84z" fill="#ED1C24" p-id="1642"></path><path d="M402.37 859.48c-19.57 0-40.05-0.45-61.3-1.5l-3.76-0.17c-7.77-0.25-16.84-5.59-17.95-13.79-0.46-3.4 0-11.8 14.59-16.33l0.83-0.26h0.87C337.23 827.32 494 820 574 805.29c81.33-14.91 172.81-47.36 173.68-47.68 9.09-3.32 18.35-1.08 23.6 5.69 4.64 6 6.54 16.85-2 29.35-6.5 9.45-53.94 24-63.39 26.87-30.63 9.17-81.06 21.88-147.33 30.29a1252.94 1252.94 0 0 1-156.19 9.67z m-69-16.86a8 8 0 0 0 4.33 1.63c0.76 0 2.1 0.09 4 0.18a1246.69 1246.69 0 0 0 215.11-8.08c63.8-8.1 112.62-20.24 142.34-29 37.72-11.11 56.13-20.09 59.1-22.68 3.51-5.24 4.42-10.35 2.31-13.08-1.59-2-4.74-2.53-8.24-1.25-0.88 0.32-93.5 33.17-175.88 48.28-77.72 14.25-226.18 21.63-239.28 22.26a16.08 16.08 0 0 0-3.74 1.74z m425-58.06z" fill="" p-id="1643"></path></svg>