<?xml version="1.0" standalone="no"?><!DOCTYPE svg PUBLIC "-//W3C//DTD SVG 1.1//EN" "http://www.w3.org/Graphics/SVG/1.1/DTD/svg11.dtd"><svg t="1659859638662" class="icon" viewBox="0 0 1024 1024" version="1.1" xmlns="http://www.w3.org/2000/svg" p-id="1955" xmlns:xlink="http://www.w3.org/1999/xlink" width="48" height="48"><defs><style type="text/css">@font-face { font-family: feedback-iconfont; src: url("//at.alicdn.com/t/font_1031158_u69w8yhxdu.woff2?t=1630033759944") format("woff2"), url("//at.alicdn.com/t/font_1031158_u69w8yhxdu.woff?t=1630033759944") format("woff"), url("//at.alicdn.com/t/font_1031158_u69w8yhxdu.ttf?t=1630033759944") format("truetype"); }
</style></defs><path d="M498.58 919A414.57 414.57 0 0 1 309 873.8a8.29 8.29 0 0 1 7.54-14.8 398.14 398.14 0 0 0 182 43.43c128.09 0 249.7-61.86 325.3-165.48a8.29 8.29 0 1 1 13.4 9.78A418.44 418.44 0 0 1 498.58 919zM116.3 658.74a8.29 8.29 0 0 1-7.72-5.26A419.1 419.1 0 0 1 878.5 323.12a8.29 8.29 0 1 1-15 7C797.59 188.89 654.36 97.63 498.58 97.63 276.7 97.63 96.18 278.15 96.18 500A400.53 400.53 0 0 0 124 647.41a8.3 8.3 0 0 1-7.71 11.33z" fill="" p-id="1956"></path><path d="M514.04 500.04m-389.4 0a389.4 389.4 0 1 0 778.8 0 389.4 389.4 0 1 0-778.8 0Z" fill="#E3F6FF" p-id="1957"></path><path d="M192.39 683.14s-25.74-172 9.48-246.55S317 261.83 405.07 229.32s177.46-24.38 197.78-16.26 43.35 31.16 46.06 35.22S326.5 561.22 326.5 561.22l-25.74 121.92-79-19.17z" fill="" p-id="1958"></path><path d="M273.58 684.58s-30.12-41.58-64.66-12.83-38.38 94-9.59 126.64 63.17 27.55 86.19 6.45 18.82-47.56 18.82-54 216.07 3.38 323.52-23.48 303.17-90.82 284-206-57.53-134.18-89.54-134.33c-38.21-0.18-75.73 1.19-77.65 1.19s-19.58-3.1-26-22.93-28.46-94-65.87-116.09-183.89 4.16-253 59.81-163.37 176.62-165.29 194.52 10.28 161.86 39.07 181.05z" fill="#EEBC8E" p-id="1959"></path><path d="M242.36 848.56q-2.27 0-4.56-0.12a91.45 91.45 0 0 1-63.31-30.73C158.88 800 150.86 772.49 153 744.07s13.93-53.52 32.24-68.78c16.42-13.69 37-18 59.44-12.61 2.15 0.52 4.23 1.11 6.2 1.74-10.68-19.66-19.41-48.43-25.56-72.82-9.25-36.7-16.28-79-15-90.6 1.41-13.2 34.37-57.29 62.17-91 40.56-49.3 82.51-92.6 115.05-118.82 33.87-27.28 85.28-49.33 141.06-60.48 51.7-10.34 96.72-9.15 117.5 3.11 42.19 24.88 82 100.26 88.26 119.72 5.62 17.42 21.09 18.29 22.19 18.33 0.49 0 2.18-0.17 4-0.33 12-1 48.4-4.19 76.93-3.05 51.81 2.07 85.07 51.51 101.68 151.15 5 30.08-2.86 59-23.4 85.83l-9.23-7.05c18.51-24.22 25.63-50.08 21.17-76.86-15.6-93.39-45.26-139.66-90.7-141.47-27.79-1.11-63.67 2-75.46 3-3.49 0.3-4.33 0.37-4.91 0.37-0.25 0-24.89-0.3-33.3-26.38-6.58-20.4-45.37-91-83.11-113.28-18.14-10.7-61.05-11.37-109.32-1.72-54 10.8-103.6 32-136.05 58.14-32 25.75-73.29 68.44-113.38 117.11s-58.94 78.91-59.58 84.9c-0.86 8 4.46 45.7 14.76 86.52 11.83 46.92 25.23 78.28 36.78 86.1l0.14 0.1-6.49 9.63-0.1-0.06a85.78 85.78 0 0 0-25.31-10.63c-18.88-4.48-35.34-1-48.93 10.33-15.91 13.26-26.15 35.4-28.1 60.75s5 49.68 18.57 65.06a79.77 79.77 0 0 0 55.22 26.82c16.79 0.88 32.16-3.86 42.17-13 24.64-22.58 33.34-44.89 33.34-48.55 0-5.75 6.41-6.9 9.49-7.45s7.58-1.1 13.75-1.68c11.49-1.07 28.07-2.18 47.26-3.45C454 758 559.25 751 631.25 733c69.11-17.28 128-37.71 175-60.73l5.11 10.43c-47.75 23.43-107.36 44.14-177.3 61.61-73 18.25-178.84 25.29-248.88 29.95-26.71 1.78-52.09 3.47-60.18 5-2.66 11.55-15.21 33.5-36.57 53.08-11.34 10.43-27.94 16.22-46.07 16.22z" fill="" p-id="1960"></path><path d="M327.18 346.5c21.18 4 61 21.34 69.09 33.53s5.08 34.54 0 41.66-33.19 12.53-51.82 0-45-17.95-51.48-7.79-19.64 34.54-21 48.43-7.45 69.77-29.8 66-38.95-34.88-32.85-76.88 26.08-98.21 55.88-105 56.24-1.03 61.98 0.05zM453.16 235.25s-17.27 55.88-12.7 73.66 16.76 30 32.51 23.37 19.81-18.29 22.35-27.43 13.21-52.32 30-56.9 48.26 15.24 54.86 18.8 34 11.68 40.64-8.64 1.52-36.58-15.24-47.24-63.52-40.14-104.16-20.87-45.47 35.67-48.26 45.25z" fill="" p-id="1961"></path><path d="M286 600.76a5.8 5.8 0 0 1-5.31-3.46c-0.34-0.77-8.36-19.21-7.75-44.8 0.56-23.65 8.9-58.08 45.43-87.81 21.32-17.36 49.52-24.77 81.53-21.44a156.23 156.23 0 0 1 42.1 10.28 5.81 5.81 0 1 1-4.62 10.66c-0.65-0.28-65.9-27.75-111.68 9.51-26.43 21.51-40.26 48-41.13 78.6a103.63 103.63 0 0 0 6.76 40.31 5.81 5.81 0 0 1-5.32 8.15zM515.33 428.35a5.81 5.81 0 0 1-5.58-4.22c-0.22-0.76-5.28-18.94-1.81-42.58 3.21-21.9 14.65-52.78 50.85-75.49 22.29-14 46.89-16.53 73.14-7.59 20.92 7.13 37.59 19.82 46.55 26.63 1.57 1.19 3.29 2.5 4.35 3.24a5.9 5.9 0 0 1 1 0.24 5.81 5.81 0 0 1 3.67 7.35 6.08 6.08 0 0 1-4 3.88c-3.52 1.09-5.69-0.56-12.13-5.46C654.64 321.57 610 287.63 565 315.91c-26 16.34-41.37 39-45.53 67.33a99.67 99.67 0 0 0 1.44 37.76 5.81 5.81 0 0 1-5.59 7.4z m161.19-96.1z m0 0zM876.07 701.76a89.14 89.14 0 0 1-16.28-1.59c-16.62-3.09-35.63-10.91-52.13-21.44-16.09-10.27-27.28-21.33-30.72-30.38-0.93-2.28-12.75-32.54 0.13-60.44 13.42-29.07 56.89-36 101.13-16.07 25.25 11.36 45 34.75 50.3 59.59 4.29 20-1 39.66-14.82 55.23-8.88 9.99-21.68 15.1-37.61 15.1z m-47-129.68a73.31 73.31 0 0 0-9.91 0.65c-15.37 2.09-26.58 9.21-31.58 20-11 23.83 0 51 0.09 51.23l0.07 0.18c4.9 13.06 40.06 38.22 74.13 44.56 13.45 2.5 31.85 2.83 43.09-9.81 14.51-16.32 14.61-33.53 12.14-45.09-4.56-21.34-21.72-41.53-43.71-51.42-15.05-6.74-30.39-10.3-44.28-10.3z" fill="" p-id="1962"></path><path d="M792.85 643.89c7.74 20.63 79.93 61.88 107.44 30.94s6-73.92-28.36-89.39-68.76-11.17-79.07 11.17-0.01 47.28-0.01 47.28z" fill="#CC5A5A" p-id="1963"></path><path d="M489.82 576.26c0 40.7-31.4 69.4-73.7 73.7-40.49 4.12-76.7-32-73.7-73.7 2.92-40.6 33.4-68 73.7-73.7 42.98-6.06 73.7 33 73.7 73.7z" fill="" p-id="1964"></path><path d="M697.3 435.89c-4.27 42.77-33.37 68.21-73.7 73.7-36 4.91-77-33.63-73.7-73.7 3.3-40.57 33.32-68.56 73.7-73.7 41.04-5.19 77.74 33.2 73.7 73.7z" fill="" p-id="1965"></path><path d="M446.25 577.13c-1.27 15.8-13.28 27.49-29.41 29.41-15.56 1.85-31.44-11.58-29.41-29.41 1.84-16.14 13.22-28.13 29.41-29.41 18.26-1.45 30.71 13.21 29.41 29.41zM648.93 441.25c-1.36 17.55-13 31-32.63 32.63-18 1.5-34.66-14.57-32.63-32.63 2-17.91 15.47-30.62 32.63-32.63 17.9-2.09 34.02 14.66 32.63 32.63z" fill="#FFFFFF" p-id="1966"></path></svg>