<?xml version="1.0" standalone="no"?><!DOCTYPE svg PUBLIC "-//W3C//DTD SVG 1.1//EN" "http://www.w3.org/Graphics/SVG/1.1/DTD/svg11.dtd"><svg t="1659859655369" class="icon" viewBox="0 0 1024 1024" version="1.1" xmlns="http://www.w3.org/2000/svg" p-id="2805" xmlns:xlink="http://www.w3.org/1999/xlink" width="48" height="48"><defs><style type="text/css">@font-face { font-family: feedback-iconfont; src: url("//at.alicdn.com/t/font_1031158_u69w8yhxdu.woff2?t=1630033759944") format("woff2"), url("//at.alicdn.com/t/font_1031158_u69w8yhxdu.woff?t=1630033759944") format("woff"), url("//at.alicdn.com/t/font_1031158_u69w8yhxdu.ttf?t=1630033759944") format("truetype"); }
</style></defs><path d="M525.14 512.04m-389.4 0a389.4 389.4 0 1 0 778.8 0 389.4 389.4 0 1 0-778.8 0Z" fill="#CEF4D0" p-id="2806"></path><path d="M509.5 931a418.65 418.65 0 0 1-419-419 423.73 423.73 0 0 1 4.95-64.58 8.29 8.29 0 0 1 16.4 2.58 407.08 407.08 0 0 0-4.75 62c0 221.89 180.52 402.41 402.41 402.41 218.31 0 395-170.8 402.18-388.85a8.29 8.29 0 0 1 16.58 0.55A419 419 0 0 1 509.5 931zM237.8 212.35a8.29 8.29 0 0 1-5.49-14.51 419.68 419.68 0 0 1 406.22-84.55 8.29 8.29 0 1 1-5.1 15.78 403.09 403.09 0 0 0-390.14 81.2 8.26 8.26 0 0 1-5.49 2.08z" fill="#070707" p-id="2807"></path><path d="M305.71 694.53S236 670 230.8 713.41s52.92 70.35 74.92 61.37 27-34 27-34z" fill="#FEE6CE" p-id="2808"></path><path d="M289.2 789.18c-17.35 0-39.9-8.08-56.48-21.21-18.62-14.75-27.48-33.61-24.94-53.08 1.44-11 6.62-19.43 15.42-25 26.49-16.73 77.29-0.51 79.44 0.18l1.81 0.59 33.89 53.57-0.46 2.12c-0.27 1.22-6.82 30-35 40.65a39.07 39.07 0 0 1-13.68 2.18z m-33.92-96.33c-9.83 0-19.41 1.53-26.45 6-6.09 3.85-9.55 9.55-10.58 17.42-2.62 20.06 10 34.7 21 43.44 20.46 16.21 47.47 22.1 59.86 17.44 19-7.17 26-25.06 27.87-31l-29.42-46.5c-5.72-1.75-24.41-6.79-42.28-6.79z" fill="#070707" p-id="2809"></path><path d="M733.4 612.78c15.12-8.53 46.83-22.82 60.15-3.66 15.46 22.25 8.05 72.9-9.78 90.94-9.3 9.41-22.14 13.39-34.7 14.78s-25.24 0.53-37.81 1.75" fill="#FEE6CE" p-id="2810"></path><path d="M711.72 721.86l-0.93-10.52c7.16-0.63 14.37-0.75 21.35-0.85 7.35-0.12 14.94-0.23 22.26-1 16.14-1.63 28.61-6.38 37-14.13 18.14-16.64 27-66.84 10.68-88.18-13.72-17.9-51.61-0.45-62.89 5.32l-4.81-9.4c16.82-8.6 57.91-26.06 76.08-2.34 9.16 12 12.74 31.35 9.82 53.21-2.79 20.87-10.92 39.25-21.74 49.18-10.16 9.32-24.66 15-43.12 16.85-7.77 0.79-15.59 0.91-23.16 1-6.74 0.15-13.76 0.26-20.54 0.86z" fill="#070707" p-id="2811"></path><path d="M250.87 607.12c-1.65 2.14 9 23.25 9.91 25.68 7.41 18.7 15.63 37 23.73 55.3 13.87 31.3 25.67 66.55 49.14 92.21 23.29 25.47 54.87 42.09 85.88 56.28 34.4 15.73 72.37 27.66 110.61 23C576.83 854 619 828.7 657 802.42c32.58-22.57 61.27-51.75 73.11-90.52 22.76-74.52 35.6-156.88 39.5-234.71C772.64 415.81 501 354.42 501 354.42L358.3 468z" fill="#CEF4D0" p-id="2812"></path><path d="M268 596c-1.6 2 8.65 22.23 9.58 24.55 7.16 17.88 15.12 35.39 22.95 52.87 13.41 29.93 24.83 63.63 47.52 88.17 22.52 24.35 53.05 40.24 83 53.81 33.26 15 70 26.44 106.95 22 45.13-5.38 85.94-29.58 122.62-54.71 31.5-21.58 59.24-49.48 70.7-86.55 22-71.25 34.43-150 38.19-224.41 3-58.69-259.68-117.38-259.68-117.38L371.89 463z" fill="#F7D7BA" p-id="2813"></path><path d="M513 866.47c-28.62 0-59.58-8-95.88-24.6-31.29-14.31-63.58-31.2-87.75-57.64-19.66-21.5-31.21-49-42.38-75.57-2.53-6-5.16-12.27-7.79-18.21l-2.53-5.71c-7.18-16.2-14.61-32.94-21.29-49.81-0.15-0.36-0.86-1.88-1.48-3.21-9.34-19.89-10.55-24.36-7.62-28.15L353.7 464.43l0.43-0.56 145.45-115.73 2.72 0.61c0.68 0.15 69 15.68 136 38.53 93.66 31.93 138.49 61.43 137.05 90.19-4.15 82.93-17.89 164.57-39.74 236.12-10.79 35.33-35.44 66-75.36 93.6-36.83 25.51-81 52.37-129.43 58.21a148.85 148.85 0 0 1-17.82 1.07zM256.79 609c0.84 2.83 3.39 8.81 7.63 17.83 1 2.16 1.52 3.23 1.77 3.87 6.59 16.65 14 33.28 21.11 49.37l2.53 5.71c2.68 6 5.32 12.33 7.88 18.41 10.79 25.67 21.95 52.22 40.25 72.23 22.78 24.91 53.84 41.11 84 54.91 41.93 19.18 76.09 26.35 107.49 22.56 45.79-5.52 86.75-30.28 124.21-56.22 37.68-26.1 60.86-54.71 70.86-87.44 21.58-70.64 35.15-151.32 39.25-233.3 0.63-12.69-15.31-39.79-129.2-78.62-58.95-20.1-118.86-34.47-132.13-37.57l-140 111.38z m-1.32 1.7z" fill="#070707" p-id="2814"></path><path d="M196 311.84c12.14 34.67 12.6 59.3 42.42 54.56 18.83-3 43-33.32 48.31-38.81 13.23-13.7 32.95-29.36 47.52-37.49 33.35-18.61 61.77-28.94 99.35-35.64 55.26-9.86 115.27-11.86 175.82 8.18 18.54 6.13 21.91 3.54 32.91-9.58 6.43-7.67 13.13-19.51 20.06-26.75 15.18-15.85 27-30.76 44.88-44.7 37.4-29.07 72.96-48.61 108.9-37.61 12.8 3.95 13.58 10.15 2.76 17.09-8.05 5.17-17.28 7.45-25.74 11.9a111.41 111.41 0 0 0-24.37 17.4c-14.76 13.85-28.81 33.88-31.06 54.43 14.83-3.24 27.14-8.32 42.89-6.8 13.5 1.31 26.58 5.57 39 11a209.07 209.07 0 0 1 81.19 63.78c21.13 27.5 31.3 64.07 32.58 98.54 0.12 3.36 1.66 31.37-4.25 32-6.91 0.77-31.72-47.57-47.58-59.86-13.1-10.14-27-24.1-43.11-28.71 51 56.51 64.39 143.95 32.74 213.15-5.66 12.38-17.47 33.66-18.46 8.15-0.75-19.31-0.34-38.69-2.75-57.9-2.28-18.17-8.81-54.14-27.47-63.05 5.6 31.69 15.17 63.48-1.57 94.23-7.86 14.43-20.39 25.74-33.5 35.64-8.37 6.32-17.25 12.28-27.26 15.41a15.35 15.35 0 0 1-7.69 0.84c-4.23-0.9-7.28-4.82-8.49-9s-0.94-8.57-0.83-12.9a178.93 178.93 0 0 0-42.14-119.44c4.71 10.1 9.34 20.29 12.3 31a107.67 107.67 0 0 1-15.93 89.88c-3.76 5.26-11.69 15.11-18.85 10.76-5.5-3.34-4.93-13.63-5-19.1A242.81 242.81 0 0 0 658 489.6c-2.16-5.73-27.81-61.47-32.67-57.43-2.94 2.44 0.89 21.7 0.89 25.17 0 12.37 0.47 24.86-1.3 37.22a141.44 141.44 0 0 1-31 70.22c-21.66 26-51.82 42.85-83 54.76-15.08 5.76-30.86 11.32-46.72 14.33-4.27 0.81-32.17 6.89-34.51-0.15s33-23 49.88-59.08c4.88-10.42 24.94-42.05 14.95-53.1-6.82 6.66-11.84 14.9-17.54 22.54a151.94 151.94 0 0 1-102.89 59.28c-1.58 0.18-3.42 0.26-4.51-0.91-1.68-1.79-0.18-4.69 1.41-6.56 15.88-18.74 40.12-31.95 47.31-55.43 4.08-13.31 1.78-27.64-0.54-41.36-35.41 25.85-54.4 72.43-47.15 115.67 1.31 7.79 3.4 15.7 2.07 23.49-0.4 2.33-1.67 5.08-4 5.11a5.5 5.5 0 0 1-3.29-1.51c-13.4-10.47-22.73-25.43-29-41.23s-9.68-32.57-13.07-49.23a132.51 132.51 0 0 0-22 74.61c0.1 7.68 8.86 57-8.85 45.6-7.07-4.53-13.59-21.54-22.64-21.86a4 4 0 0 0 0.15 3.39l13.59 37.66c1.79 5 13.44 27.24 8.29 31.93-3.46 3.15-18.1-9.46-20.32-11.19-35.77-28-41.41-49.37-53.62-93-8.15-29.11-10.2-59.57-8.78-89.67 0.7-14.84 0.59-29.3 2.64-44 1.38-9.9 8.91-46.07 4.55-55.42-11.09-23.76-111.72-68.7-101.22-76.6 6.91-5.19 2.3-16.6 9-14.21 8.3 3 28.93 15.72 36.39 7-9.74-12-35.57-29.71-31.82-46.26 6-26.37 23.79-53.08 37-76.68 1.99-3.7 26.48 78.05 30.32 89.14z" fill="#070707" p-id="2815"></path><path d="M784 150.94a99 99 0 0 1 24.14 2.91c-2.59 1.25-5.37 2.37-8.25 3.53a127.75 127.75 0 0 0-12.09 5.36A122.88 122.88 0 0 0 760.87 182c-9.35 8.78-31.45 32.35-34.66 61.63a11.62 11.62 0 0 0 14 12.61c3.94-0.86 7.64-1.82 11.22-2.76 8.35-2.18 15.56-4.05 23.42-4.05 1.55 0 3.12 0.08 4.65 0.22 10.76 1 22.36 4.34 35.45 10.1a196.94 196.94 0 0 1 76.65 60.23c9.29 12.09 16.65 26.59 21.87 43.08a187.06 187.06 0 0 1 8.31 48.82v0.82q0.11 2.5 0.16 4.67c-1.2-1.78-2.36-3.51-3.41-5.07-10-15-20.41-30.51-29.9-37.86-2.74-2.12-5.53-4.43-8.49-6.88-11.08-9.16-23.63-19.55-38.54-23.81a11.62 11.62 0 0 0-11.82 18.95c46.05 51.07 59.52 129.35 34 193.1-0.28-12.74-0.67-25.84-2.31-38.93-5-39.43-16.39-63.68-34-72.09a11.62 11.62 0 0 0-16.45 12.5c0.75 4.25 1.58 8.53 2.38 12.66 5.06 26.2 9.84 50.94-2.71 74-7.41 13.61-20.08 24.21-30.3 31.93-7.25 5.47-15.14 10.91-23.73 13.6-0.55 0.17-1 0.29-1.29 0.36a3.94 3.94 0 0 1-0.26-0.67c-0.59-2-0.5-5-0.4-8.13v-1.2a191 191 0 0 0-44.91-127.4 11.62 11.62 0 0 0-19.38 12.43c4.79 10.28 9 19.57 11.63 29.21a96.06 96.06 0 0 1-14.19 80c-1 1.43-1.93 2.58-2.72 3.51v-3.46-1.75a253.07 253.07 0 0 0-16.34-86.84c-1.29-3.42-8-18.19-15.08-32.08-14.34-28.08-19.77-33.08-27.88-33.08a12.56 12.56 0 0 0-8 2.89c-6.73 5.6-5.85 15-3.84 29.89 0.21 1.55 0.49 3.65 0.54 4.36v6.56c0.06 10.06 0.12 19.56-1.21 28.86A130.69 130.69 0 0 1 585 557.34c-17.69 21.21-43.29 38-78.24 51.35-14.28 5.45-29.59 10.9-44.74 13.77l-1.25 0.25c-1.27 0.25-3.26 0.65-5.6 1.06 11.43-10.08 25.51-24.16 34.89-44.2 0.7-1.5 1.91-3.77 3.31-6.4 9.36-17.6 23.5-44.2 9.73-59.42a11.62 11.62 0 0 0-8.26-3.82h-0.36a11.62 11.62 0 0 0-8.12 3.31c-5.7 5.57-10.07 11.76-14.3 17.75-1.52 2.14-2.95 4.17-4.42 6.15-17.43 23.35-42.85 40.93-70.8 49.58 13.22-11.93 26.86-24.28 32.55-42.85 5-16.22 2.1-33.12-0.2-46.7a11.62 11.62 0 0 0-18.3-7.44c-33.57 24.51-54 65.78-53.44 108a14.94 14.94 0 0 0 0.26 6.64 123 123 0 0 0 1.42 12.3c0.15 0.88 0.3 1.75 0.46 2.62a101 101 0 0 1-12.45-22.95c-5.9-14.9-9.25-31.35-12.49-47.26a11.62 11.62 0 0 0-21.06-4.08 144.56 144.56 0 0 0-23.94 81.2c0 1.88 0.3 4.43 0.72 8.3 0.55 5.1 1.3 12.08 1.49 18.45v0.21c-5.15-7-11.63-14.62-21.67-15h-0.42a11.62 11.62 0 0 0-10.57 6.8 15.42 15.42 0 0 0-0.21 12.15l13.59 37.66c0.4 1.11 1 2.44 1.74 4.16-30.87-25.71-54-61.9-65.35-102.51-7.15-25.54-9.88-53.67-8.36-86 0.63-13.42 2-27.59 4.18-43.3 0.28-2 1.14-5.51 2-9.18 3.57-14.43 7.61-30.79 0.16-41.29-3.26-4.59-7.51-7.37-10.92-9.61-3.76-2.46-25-17.52-46.74-34.49-11.84-9.23-20.51-16.43-26.86-22 1 0.45 2.2 1 3.42 1.56 7.9 3.64 17.74 8.18 27 8.18 8.57 0 13.65-3.85 16.41-7.07a11.62 11.62 0 0 0 0.18-14.88c-3.45-4.24-8.39-8.6-13.62-13.21-5.75-5.07-11.69-10.32-15.73-15.41-3.33-4.19-4.22-6.93-4-8a271.52 271.52 0 0 1 27.76-72.39c0.33-0.6 0.62-1.08 0.87-1.48 1.33 1.44 3.52 4.42 6.3 10.35a218.88 218.88 0 0 1 8.6 22.87c1.54 4.64 2.76 8.3 3.93 11L200 309.56l16.36 37.58c1.08 2.49 3.1 7.11 8 10.1a15.14 15.14 0 0 0 7.87 2.18c11.07 0 21.39-11 39-34.06 2.05-2.69 4.61-6 5.38-6.85a266.26 266.26 0 0 1 41.85-35.13 293.31 293.31 0 0 1 100.64-43.16 320.16 320.16 0 0 1 69-7.4 361.06 361.06 0 0 1 113.53 18.66 48.75 48.75 0 0 0 15.35 2.91c13.58 0 20.43-8.3 27.68-17.09 0.77-0.93 1.58-1.91 2.43-2.93 2.42-2.89 4.76-5.85 7-8.72 4-5 7.69-9.76 11.75-14 16.38-17.11 32.18-30.15 48.31-39.88 22.28-13.44 47.1-20.85 69.88-20.85M784 139.33c-26.39 0-53.07 8.76-75.88 22.51-18.84 11.36-35.52 25.94-50.7 41.79-6.93 7.24-12.84 15.61-19.28 23.29-8.17 9.74-12.12 15.86-21.2 15.86a38.11 38.11 0 0 1-11.7-2.32 374.4 374.4 0 0 0-117.18-19.24 331.21 331.21 0 0 0-71.5 7.67 303.06 303.06 0 0 0-104.66 44.9 277.53 277.53 0 0 0-43.68 36.67c-5 5.13-26.36 37.36-36 37.36a3.47 3.47 0 0 1-1.84-0.49c-1.71-1-2.6-3-3.4-4.81l-32.73-75.17c-4.62-10.6-14.36-52.3-30.06-52.3h-0.76q-0.38 0-0.82 0.11c-4.15 0.74-6.79 4.74-8.84 8.41a283.74 283.74 0 0 0-28.94 75.48c-3.75 16.56 25.9 34.55 35.64 46.52-1.85 2.16-4.51 3-7.58 3-9.35 0-22.57-7.77-28.81-10-5.08-1.76-15.14-6.57-22.73-6.57a10.41 10.41 0 0 0-6.35 1.81c-10.51 7.9 85.25 76.7 94.7 82.89 2.89 1.89 5.86 3.83 7.86 6.64 6 8.41-2.86 32.26-4.24 42.15-2 14.72-3.58 29.51-4.28 44.36-1.42 30.1 0.63 60.56 8.78 89.67 12.21 43.64 37.92 84 73.69 112 2 1.54 13.78 11.7 18.8 11.7a2.18 2.18 0 0 0 1.52-0.5c5.15-4.69-6.5-27-8.29-31.93l-13.59-37.66a4 4 0 0 1-0.15-3.39c9 0.33 15.57 17.33 22.64 21.86a8.92 8.92 0 0 0 4.65 1.69c11.36 0 4.29-40.4 4.2-47.29a132.51 132.51 0 0 1 22-74.61c3.39 16.66 6.81 33.42 13.07 49.23s15.6 30.76 29 41.23a5.57 5.57 0 0 0 3.24 1.51c2.36 0 3.64-2.78 4-5.11 1.33-7.79-0.76-15.7-2.07-23.49a111.18 111.18 0 0 1-1.34-12.76 3.47 3.47 0 0 1-0.11-3c-0.94-38.43 17.5-77.2 48.64-99.93 2.33 13.73 4.62 28.05 0.54 41.36-7.19 23.49-31.43 36.69-47.31 55.43a10.28 10.28 0 0 0-1.88 3.13q0 1.49 0.11 3a2.75 2.75 0 0 0 0.35 0.46 3.89 3.89 0 0 0 3 1 13.54 13.54 0 0 0 1.55-0.11 151.94 151.94 0 0 0 102.89-59.28c5.7-7.64 10.72-15.88 17.54-22.54 10 11-10.07 42.69-14.95 53.1-16.88 36.06-52.18 52.18-49.88 59.08 0.84 2.52 5 3.36 10.1 3.36 9.2 0 21.68-2.69 24.41-3.21 15.86-3 31.64-8.57 46.72-14.33 31.2-11.91 61.36-28.8 83-54.76a141.44 141.44 0 0 0 31-70.22c1.77-12.36 1.29-24.84 1.3-37.22 0-3.47-3.83-22.73-0.89-25.17a0.89 0.89 0 0 1 0.58-0.21c6 0 30 52.11 32.09 57.64a242.81 242.81 0 0 1 15.6 82.86c0.05 5.47-0.51 15.76 5 19.1a7.13 7.13 0 0 0 3.76 1.08c6 0 12-7.49 15.09-11.84a107.67 107.67 0 0 0 15.93-89.88c-3-10.74-7.6-20.93-12.3-31a178.93 178.93 0 0 1 42.14 119.55c-0.12 4.32-0.38 8.74 0.83 12.9s4.25 8.08 8.49 9a9.88 9.88 0 0 0 2.06 0.21 19.14 19.14 0 0 0 5.63-1c10-3.13 18.89-9.09 27.26-15.41 13.11-9.9 25.64-21.21 33.5-35.64 16.74-30.75 7.17-62.54 1.57-94.23 18.66 8.91 25.19 44.88 27.47 63.05 2.41 19.21 2 38.59 2.75 57.9 0.34 8.73 1.95 12 4.14 12 4.22 0 10.6-12 14.32-20.13 31.65-69.2 18.22-156.64-32.74-213.15 16.11 4.61 30 18.57 43.11 28.71 15.74 12.19 40.29 59.86 47.41 59.86h0.17c5.92-0.66 4.38-28.67 4.25-32-1.28-34.48-11.45-71-32.58-98.54a209.07 209.07 0 0 0-81.19-63.78c-12.42-5.46-25.5-9.72-39-11-2-0.19-3.89-0.28-5.77-0.28-13.1 0-24.14 4.25-37.12 7.08 2.25-20.54 16.3-40.58 31.06-54.43A111.41 111.41 0 0 1 793.19 173c8.46-4.44 17.68-6.73 25.74-11.9 10.82-6.94 10-13.14-2.76-17.09a108.94 108.94 0 0 0-32.17-4.68z" fill="#070707" p-id="2816"></path><path d="M371.53 665.37m-43.16 0a43.16 43.16 0 1 0 86.32 0 43.16 43.16 0 1 0-86.32 0Z" fill="#FCFAFB" p-id="2817"></path><path d="M360.548697 669.43663a24.17 22.64 75.25 1 0 43.78784-11.528377 24.17 22.64 75.25 1 0-43.78784 11.528377Z" fill="" p-id="2818"></path><path d="M387.33 665.44m-13.3 0a13.3 13.3 0 1 0 26.6 0 13.3 13.3 0 1 0-26.6 0Z" fill="#F9F7F8" p-id="2819"></path><path d="M332.19 652.36a4.75 4.75 0 0 1-4.28-6.81c0.48-1 12-24.48 34.83-27.27 22.17-2.72 40 10.88 40.79 11.46a4.75 4.75 0 1 1-5.81 7.52c-0.15-0.11-15.6-11.78-33.82-9.54-17.6 2.16-27.34 21.77-27.43 22a4.76 4.76 0 0 1-4.28 2.64zM385.54 687.87a5.81 5.81 0 0 1-5.13-3.08c-3.08-5.8-12.49-13.93-15.85-16.57a5.81 5.81 0 0 1 7.17-9.14c1.43 1.13 14.15 11.25 18.94 20.26a5.81 5.81 0 0 1-5.12 8.53zM399.35 664.21a5.8 5.8 0 0 1-4.77-2.48c-4.05-5.8-12-7-12.12-7a5.81 5.81 0 0 1 1.54-11.55c0.53 0.07 13.1 1.86 20.1 11.89a5.81 5.81 0 0 1-4.76 9.13z" fill="#050505" p-id="2820"></path><path d="M658.51 619.85m-43.16 0a43.16 43.16 0 1 0 86.32 0 43.16 43.16 0 1 0-86.32 0Z" fill="#FCFAFB" p-id="2821"></path><path d="M641.38213 623.927154a24.17 22.64 75.25 1 0 43.78784-11.528377 24.17 22.64 75.25 1 0-43.78784 11.528377Z" fill="" p-id="2822"></path><path d="M668.16 619.91m-13.3 0a13.3 13.3 0 1 0 26.6 0 13.3 13.3 0 1 0-26.6 0Z" fill="#F9F7F8" p-id="2823"></path><path d="M619.16 606.31a4.23 4.23 0 0 1-3.8-6.06c0.48-1 11.91-24.22 34.42-27 22-2.7 39.66 10.78 40.4 11.35a4.22 4.22 0 0 1-5.17 6.68c-0.15-0.11-15.78-11.9-34.21-9.65-18 2.21-27.74 22.06-27.84 22.26a4.22 4.22 0 0 1-3.8 2.42zM666.38 642.34a5.81 5.81 0 0 1-5.13-3.08c-3.08-5.8-12.49-13.93-15.85-16.57a5.81 5.81 0 0 1 7.17-9.14c1.43 1.13 14.15 11.25 18.94 20.26a5.81 5.81 0 0 1-5.12 8.53zM680.19 618.69a5.8 5.8 0 0 1-4.77-2.48c-4.05-5.8-12-7-12.12-7a5.81 5.81 0 1 1 1.54-11.51c0.53 0.07 13.1 1.86 20.1 11.9a5.81 5.81 0 0 1-4.76 9.13z" fill="#050505" p-id="2824"></path><path d="M526.1 722.87a20.67 20.67 0 0 1-2.38-0.13 5.81 5.81 0 0 1 1.37-11.54c1.4 0.15 4.93 0 6.32-1.48 1-1.08 1-3.27 0.7-4.92a5.81 5.81 0 0 1 11.48-1.8c1.19 7.71-1.44 12.29-3.85 14.78-4.23 4.41-10.28 5.09-13.64 5.09z" fill="#070707" p-id="2825"></path><path d="M468.79 767.62c-0.35-1.16 28.35 2.8 59.08 0 28.44-2.59 57.55-13 57.55-13S583.35 816 538.08 821s-64.69-38-69.29-53.38z" fill="#070707" p-id="2826"></path><path d="M530.75 826.69c-48.29 0-65.17-51.4-67-57.55a5.41 5.41 0 0 1 0.93-4.85c1.95-2.46 3.39-2.38 12.74-1.83 10.44 0.61 29.88 1.74 50-0.09 27.45-2.5 56-12.65 56.24-12.75a5.28 5.28 0 0 1 7.06 5.15 112.19 112.19 0 0 1-7 33.07c-8.84 22.87-24.4 36.16-45 38.43a72.21 72.21 0 0 1-7.97 0.42zM476.32 773c6.11 14.92 23.7 46.92 61.18 42.78 31-3.42 39.56-37.88 41.84-53.61-10.73 3.34-30.88 8.91-51 10.74-20.9 1.9-40.85 0.74-51.56 0.12z" fill="#070707" p-id="2827"></path><path d="M483 795.73s29.4-5.88 55-1.66 29.27 11.47 29.27 11.47-9.35 12-24.6 15.86c-9.16 2.34-27-0.89-36.75-5.39S483 795.73 483 795.73z" fill="#EA8BA6" p-id="2828"></path><path d="M535.16 825.35c-10 0-22.67-2.87-30.49-6.48-10.28-4.74-23.5-20.45-24.05-21.12a3.17 3.17 0 0 1 1.81-5.14c1.22-0.25 30.27-5.95 56.17-1.68s30.86 11.72 31.58 13.17a3.17 3.17 0 0 1-0.33 3.37c-0.41 0.52-10.2 12.86-26.31 17a34.59 34.59 0 0 1-8.38 0.88z m-45.93-27.45c4.48 4.84 12.12 12.46 18.1 15.22 9.06 4.18 26.17 7.37 34.64 5.2 10.33-2.64 17.79-9.31 21.06-12.7-2.7-2.06-9.55-5.81-25.46-8.44-18.26-3-38.73-0.71-48.34 0.72z" fill="" p-id="2829"></path><path d="M355.2 781.8a103.64 103.64 0 0 1-58.59-17.65c-46.26-30.8-68-95.72-71.39-131.84l-0.36-3.93 3.66-1.46a1108 1108 0 0 1 200.81-58.86c7.81-1.5 15.43-2.61 22.78 0.36 13.19 5.33 28.59 52.46 26.87 95.22-1 25.14-7.36 47-18.86 65.08-14 21.94-35.28 37.52-63.29 46.28a139.39 139.39 0 0 1-41.63 6.8z m-119-146.56c4.25 33.66 25.08 92.67 66.3 120.12 25.83 17.2 56.52 20.41 91.21 9.56 55.48-17.36 70.95-60.14 74.15-93 2.66-27.22-2.51-51.4-5.82-63.39-5.25-19-11.65-29.15-13.92-30.38-4.62-1.86-10.33-1-16.76 0.25a1097.44 1097.44 0 0 0-195.2 56.84zM671.79 731.71q-3.12 0-6.28-0.13c-34.4-1.4-66-14.55-84.54-35.17-14.75-16.41-21.78-37.63-27.18-58.12a540.07 540.07 0 0 1-12.06-59c-1-6.49-1.64-12.84 0.44-19.15 4.54-13.84 18.9-14.21 25-14.37l41.83-1.04c18.65-0.48 37.93-1 56.94-1.29 47.52-0.8 83.77-0.31 117.52 1.58 2.6 0.15 7.43 0.42 10.69 4.1 2.73 3.09 2.93 7 3.05 9.39 1.47 29.26-0.08 102-46 145.43-18.89 17.81-47.54 27.77-79.41 27.77zM666.08 554c-19 0.32-38.23 0.81-56.85 1.29l-41.77 1.07c-9.5 0.24-13.64 2.17-15.26 7.11-1.36 4.13-0.81 8.93 0 14.32A529.9 529.9 0 0 0 564 635.6c5.06 19.21 11.57 39 24.82 53.75 16.68 18.55 45.51 30.4 77.12 31.68 31.08 1.26 60.21-8 77.94-24.76C786.63 655.86 788 586.84 786.62 559a9.93 9.93 0 0 0-0.43-2.94c-0.2-0.15-1-0.4-3.36-0.53-33.48-1.88-69.49-2.36-116.75-1.57z" fill="#070707" p-id="2830"></path><path d="M477 657.91l-6.3-8.47c1-0.73 24.31-17.92 46.68-19.56 21.93-1.61 45 6.19 46 6.52l-3.42 10c-0.22-0.07-22.1-7.43-41.82-6-19.32 1.42-40.97 17.35-41.14 17.51z" fill="#070707" p-id="2831"></path></svg>