<?xml version="1.0" standalone="no"?><!DOCTYPE svg PUBLIC "-//W3C//DTD SVG 1.1//EN" "http://www.w3.org/Graphics/SVG/1.1/DTD/svg11.dtd"><svg t="1659859648243" class="icon" viewBox="0 0 1024 1024" version="1.1" xmlns="http://www.w3.org/2000/svg" p-id="2454" xmlns:xlink="http://www.w3.org/1999/xlink" width="48" height="48"><defs><style type="text/css">@font-face { font-family: feedback-iconfont; src: url("//at.alicdn.com/t/font_1031158_u69w8yhxdu.woff2?t=1630033759944") format("woff2"), url("//at.alicdn.com/t/font_1031158_u69w8yhxdu.woff?t=1630033759944") format("woff"), url("//at.alicdn.com/t/font_1031158_u69w8yhxdu.ttf?t=1630033759944") format("truetype"); }
</style></defs><path d="M528.63 506.85m-389.4 0a389.4 389.4 0 1 0 778.8 0 389.4 389.4 0 1 0-778.8 0Z" fill="#C9E8B5" p-id="2455"></path><path d="M513 925.85A419.18 419.18 0 0 1 106.59 609.2a8.29 8.29 0 0 1 16.09-4 402.71 402.71 0 0 0 567.78 263 8.29 8.29 0 1 1 7.32 14.8A414.9 414.9 0 0 1 513 925.85zM922.06 552.14h-0.75a8.29 8.29 0 0 1-7.52-9c1.07-12 1.61-24.17 1.61-36.26C915.4 285 734.88 104.45 513 104.45a401.15 401.15 0 0 0-273.13 106.88 8.29 8.29 0 0 1-11.26-12.18A418.87 418.87 0 0 1 932 506.85c0 12.58-0.56 25.27-1.68 37.73a8.29 8.29 0 0 1-8.26 7.56z" fill="#050505" p-id="2456"></path><path d="M139 328c-22.85 18.21-22.5 63.08-23.16 89.35a359.27 359.27 0 0 0 10.72 96C156 630.94 262 760.76 396.82 744.8c8.13-1 16.12-2.68 24.19-4.06 23.35-4-20.16-302.37-20.16-302.37L259.84 312l-95-4.52z" fill="#C9E8B5" p-id="2457"></path><path d="M148.58 323.46c-21.38 16.82-19.42 57.48-17.59 81.72 2.21 29.29 9.91 65.17 17.28 94.15 27.66 108.83 133.27 244.1 259.51 229.48 7.62-0.88 8.85-17.52 16.4-18.79C446 706.36 405 430.28 405 430.28L272.83 313.21l-89-4.28s-35.11 14.43-35.25 14.53z" fill="#FAC8B1" p-id="2458"></path><path d="M374.26 751.6a199.05 199.05 0 0 1-74.45-14.6c-28.83-11.55-56.23-29.68-81.43-53.88-46-44.16-81.37-105.55-97.09-168.44a364.27 364.27 0 0 1-10.88-97.43c0-1.47 0.07-3 0.1-4.58 0.61-27.92 1.54-70.12 25.11-88.9L163 301.91l99 4.71 144 129 0.29 2c0.11 0.75 11 75.56 18.87 149.9 4.64 43.74 7.35 78.79 8.05 104.18 1.21 43.55-3.4 53.13-11.24 54.46-2.49 0.42-5 0.88-7.45 1.34-5.52 1-11.24 2.07-17 2.76a197.3 197.3 0 0 1-23.26 1.34zM142.43 332.29c-19.57 15.59-20.43 54.71-21 80.59 0 1.59-0.07 3.13-0.11 4.62a353.33 353.33 0 0 0 10.57 94.5C161 628.4 258 740.64 374.65 740.65a182.69 182.69 0 0 0 21.52-1.27c5.42-0.64 11-1.66 16.31-2.65 2.23-0.41 4.46-0.82 6.7-1.21 1.2-2 4.43-11.23 2.77-51.65-1.06-25.73-3.9-60.11-8.46-102.18-7-65-16.08-128.72-17.78-140.56L257.64 317.35l-91-4.33-24.19 19.27z" fill="" p-id="2459"></path><path d="M521.87 357.42c12.69-36.52 24.68-73.48 32.05-111.65 4-20.59 8.2-49.35 28.81-58.57 8.94-4 19.15-3.55 28.34-0.59 66.9 21.52 89.51 125.91 77.54 191.64" fill="#DFA23C" p-id="2460"></path><path d="M711.89 380.94l-10.73-2c6.47-34.3 2.37-77.66-10.72-113.15-15.2-41.21-41-69.24-72.65-78.93-10-3.07-19.87-3-27.68 0.23-18.65 7.68-23.5 32.42-27.41 52.3q-0.4 2-0.79 4C554.37 281 542.5 316.88 527 359.14l-10.26-3.76c15.31-41.79 27-77.2 34.45-114.19q0.38-1.92 0.78-3.93c4.17-21.26 9.89-50.38 34-60.3 10.14-4.18 22.59-4.39 35-0.58 35 10.7 63.3 41.1 79.7 85.59 13.95 37.82 18.14 82.29 11.22 118.97z" fill="#020202" p-id="2461"></path><path d="M406.08 743.28c54.41 55.49 131.9 86.31 209.34 86.57 72 0.24 154.7-15.79 211.39-63.12 25.78-21.52 49.23-50.4 58.82-83.13 2.77-9.46 3.56-19.76 0.42-29.1-9.87-29.36-36.78-25.2-60.31-29.6-17.1-3.2-11.25-34.14-9.25-45.37 12.05-67.71 8.27-138.74-44.35-189.71-31-30-72.75-45.61-114.65-52.92a333 333 0 0 0-62.78-5c-12.24 0.2-24.47 1-36.66 2.05-12.84 1.16-24.77-0.16-37.14 4.75 19.23-7.65 36.62-18.7 56.46-25a272.42 272.42 0 0 1 62.79-11.92c34.83-2.45 69.79 1.92 104.28 6.38-35.12-21-78.16-22.1-117.89-20.83-20 0.64-40 2.55-59.51 6.85-19.93 4.39-39 12.46-57.77 20.31 3.91-1.64 8.82-13.12 10.88-16.94a122.68 122.68 0 0 0 8.63-19.93 107.26 107.26 0 0 0 4.71-21.13c0.48-4.17 2.54-16-2.18-18.63-5 6.71-6.73 16.33-10.58 23.79-6.52 12.62-13.89 24.92-25.36 33.63C480 307 461 312.83 446.12 325.21c-15.87 13.22-25.91 30.34-34.8 48.75 0 0-53.87-28.63-77.77-43.84s-73.32-59-117.72-57.62c-59.37 1.89-85.57 65.3-85.58 65.33 4.49-7.4 17.93-10.66 25.66-13.17a119.69 119.69 0 0 1 34.32-5.75c31.67-0.69 61.35 11.63 86.3 30.54 34.15 25.9 61.08 62.68 76.69 102.51a195.89 195.89 0 0 1 6.54 19.55c8.41 30.6 5.34 58.57-4.88 88-23.95 69 3.12 134.74 51.2 183.77z" fill="#C9E8B5" p-id="2462"></path><path d="M422.47 727.21c50.83 53.36 121.37 92.31 193.91 92.36 67.42 0 146.35-19.68 199.58-65.47 24.21-20.82 43-50.28 52.12-81.86 2.62-9.12 3.39-19.06 0.47-28.06-9.17-28.29-34.39-24.21-56.42-28.38-16-3-10.45-32.89-8.55-43.73 11.47-65.32 8.1-133.8-41.06-182.8-29-28.89-68-43.79-107.28-50.73a302.9 302.9 0 0 0-58.8-4.68c-11.47 0.22-22.93 1-34.35 2.08-12 1.15-23.21-0.09-34.81 4.68 18-7.42 34.36-18.13 53-24.21a249.56 249.56 0 0 1 58.86-11.66c32.64-2.45 65.38 1.67 97.67 5.89-32.85-20.11-73.17-21.1-110.39-19.78-18.71 0.66-37.46 2.56-55.77 6.76-18.69 4.29-43.37 8.45-61 16.08 3.67-1.59-0.89-5.81 1.06-9.5 3.24-6.16 11.59-18.7 13.73-25.34s4.48-11 5.28-18c0.46-4 4.42-18.6 0-21.12-4.69 6.48-11.16 15-14.78 22.18-6.14 12.19-6.13 23.25-16.9 31.68-14.42 11.29-30.4 17.59-44.35 29.57C438.78 336 423 356.11 414.6 373.88c0 0-44.17-23.41-66.53-38s-72.61-57.45-114-61.25c-75.38-6.91-91 50.29-91 50.31 4.22-7.14 34.26-4.34 41.51-6.78 10.38-3.5 24-2 34.88-2.28 29.67-0.75 57.79 16 81.11 34.16 31.92 24.89 57.79 61.26 72.32 99.62 2.33 6.16 4.52 13.41 6.21 19.8 7.8 29.48 5.51 56.18-4.15 84.6-22.64 66.56 2.59 125.99 47.52 173.15z" fill="#DFA23C" p-id="2463"></path><path d="M617 835.32h-1.6a310.16 310.16 0 0 1-115.35-23C462.47 797 429.54 775 402.18 747.11c-25.74-26.25-44.39-56.19-53.93-86.59-10.78-34.36-10.29-68.94 1.45-102.78 10.84-31.23 12.31-57.38 4.78-84.78a191.18 191.18 0 0 0-6.35-19c-15.59-39.77-42.19-75.34-74.91-100.15-26.19-19.87-54.86-30-82.88-29.44a114 114 0 0 0-32.75 5.48c-1 0.33-2.12 0.67-3.29 1-6.59 2-16.56 5.1-19.39 9.78a5.46 5.46 0 0 1-9.66-5.06C126.81 332 154.54 269 215.66 267c37.48-1.21 77.64 27.73 104.2 46.87 6.46 4.66 12 8.68 16.63 11.6 19.22 12.23 58.56 33.52 72.43 41 8.09-16.1 18-32.39 33.71-45.46 8.32-6.93 17.78-11.88 26.93-16.67 8.05-4.21 15.66-8.19 22.52-13.4 10.69-8.12 17.76-20.08 23.81-31.79a77 77 0 0 0 3.68-9.06c1.92-5.32 3.9-10.83 7.37-15.48a5.46 5.46 0 0 1 7-1.52c7.52 4.17 6 15.79 5.12 22.74-0.06 0.49-0.12 0.93-0.16 1.3a112.87 112.87 0 0 1-4.9 22.22 128.32 128.32 0 0 1-9 20.82c-0.34 0.63-0.76 1.48-1.24 2.46 13.64-5.49 27.66-10.57 42.15-13.76 18-4 37.82-6.26 60.51-7 41.74-1.33 85.28 0.37 120.86 21.6a5.46 5.46 0 0 1-3.5 10.11c-31.93-4.13-68.12-8.81-103.19-6.35a267 267 0 0 0-61.59 11.7 181 181 0 0 0-23.72 9.73l2.27-0.18c13.43-1.21 25.55-1.89 37.06-2.08a339.5 339.5 0 0 1 63.81 5.11c49.67 8.66 89.21 27 117.52 54.38 25.13 24.35 41.28 55.13 48 91.51 5.58 30.21 4.9 63.93-2.07 103.08l-0.11 0.64c-1.6 9-6.48 36.26 5 38.41 4.54 0.85 9.38 1.38 14.06 1.9 19.42 2.14 41.43 4.58 50.42 31.33 3.19 9.5 3.07 20.69-0.36 32.38-8.82 30.08-30.33 60.55-60.56 85.79-66.91 55.85-161.72 64.39-213.32 64.39z m-207-95.86c52.68 53.71 127.56 84.67 205.45 84.93H617c50.13 0 142.06-8.2 206.33-61.86 28.59-23.87 48.87-52.45 57.08-80.48 1.95-6.64 3.61-16.52 0.49-25.82-6.77-20.14-22-21.82-41.27-24-4.88-0.54-9.93-1.1-14.87-2-22.11-4.13-16-38.23-13.73-51.06l0.11-0.64c14.65-82.3 0.66-142.76-42.77-184.83-26.7-25.87-64.32-43.18-111.79-51.46a328.94 328.94 0 0 0-61.75-4.95c-11.24 0.18-23.1 0.85-36.26 2-3.76 0.34-7.42 0.47-11 0.6-8.56 0.31-16.64 0.6-24.65 3.79a5.46 5.46 0 0 1-4-10.15c7.83-3.12 15.58-6.92 23.06-10.6 10.73-5.27 21.83-10.72 33.77-14.49a277.91 277.91 0 0 1 64.05-12.16c21.06-1.48 42.32-0.48 62.82 1.44-24.2-5.45-50.36-5.79-75.87-5-22 0.7-41.15 2.9-58.51 6.73-19 4.2-37.66 12-55.66 19.53l-1.18 0.49a5.46 5.46 0 0 1-4.42-10c1.87-1.43 5.44-8.68 6.79-11.43 0.63-1.27 1.17-2.37 1.6-3.16a117.51 117.51 0 0 0 8.25-19 103.73 103.73 0 0 0 3.9-15.91 55.58 55.58 0 0 1-1.9 4.15c-6.64 12.85-14.49 26-26.91 35.47-7.59 5.76-16 10.14-24.06 14.38-9 4.73-17.57 9.19-25 15.38-15.75 13.13-25.35 30.31-33.38 46.92a5.46 5.46 0 0 1-7.48 2.45c-2.21-1.17-54.33-28.91-78.14-44.06-4.85-3.08-10.55-7.19-17.15-11.95-25.39-18.21-63.7-45.83-97.5-44.71-35.94 1.14-59.05 26.48-71 44.42 2.1-0.72 4.16-1.35 6.06-1.94 1.11-0.34 2.17-0.67 3.13-1a124.87 124.87 0 0 1 35.88-6c30.52-0.67 61.54 10.28 89.72 31.65 34.29 26 62.16 63.25 78.47 104.87a202.21 202.21 0 0 1 6.74 20.06c8 29.27 6.46 58.27-5 91.26-28.34 81.75 19.15 146.68 50 178.14z m96.9-429.84z" fill="#020202" p-id="2464"></path><path d="M583.56 751.82c-5.72 25.47 18.43 51.88 37.84 64.86 61.16 40.9 146.22 5 171.71-60.15a149.32 149.32 0 0 0 8.44-29.33c1.3-7.77 5.24-19.74 3.54-27.55-0.63-2.88-2.71-4.61-2.93-7.69" fill="#C9E8B5" p-id="2465"></path><path d="M603.71 745.48c-5.18 22.86 16.83 46.6 34.52 58.27 55.71 36.79 133.06 4.69 156.19-53.8a132.39 132.39 0 0 0 7.65-26.32c1.17-7 4.75-17.72 3.19-24.73-0.58-2.59-2.47-4.14-2.67-6.91" fill="#FFECD3" p-id="2466"></path><path d="M679.09 838.5A107.17 107.17 0 0 1 619 820.32c-17.85-11.94-46.3-40-39.68-69.46l8.53 1.92c-4.86 21.62 15.26 46.4 36 60.27 25.82 17.26 57.48 21.29 89.16 11.35 34.9-11 63.33-36.92 76.06-69.46a144.66 144.66 0 0 0 8.2-28.46c0.37-2.18 0.91-4.6 1.48-7.16 1.4-6.22 3.14-14 2.09-18.74a9.23 9.23 0 0 0-1-2.25 14.36 14.36 0 0 1-2-6.07l8.72-0.62a6.55 6.55 0 0 0 1 2.56 16.86 16.86 0 0 1 1.83 4.52c1.46 6.68-0.44 15.09-2.11 22.52-0.55 2.44-1.07 4.74-1.39 6.68a153.37 153.37 0 0 1-8.68 30.2c-13.68 35-44.18 62.87-81.58 74.61a121.86 121.86 0 0 1-36.54 5.77z" fill="" p-id="2467"></path><path d="M590.65 480.11a3.82 3.82 0 0 1-3.67-4.9c5.86-20 9.34-40.22-4.73-53.17a3.82 3.82 0 0 1 5.18-5.63c14.69 13.52 14.08 32.22 9.48 51.33 8.5-7.07 17-18.76 21.42-28.2 5.11-10.94 6.2-23.33 3.54-40.19a3.82 3.82 0 0 1 7.55-1.19c1.81 11.46 3.34 28.54-4.17 44.61-5.5 11.77-19.4 31-33.08 37a3.82 3.82 0 0 1-1.52 0.34zM747.29 481.52a3.83 3.83 0 0 1-3.62-5.06c1.49-4.37 4.14-8.45 6.7-12.39a60.71 60.71 0 0 0 6-10.65c3.36-8.77 3.43-17.93 0.22-29.71a3.82 3.82 0 0 1 7.38-2c3.62 13.27 3.47 24.22-0.46 34.46a66.34 66.34 0 0 1-6.68 12.07l-0.68 1.05c1.72-0.55 3.65-1.15 5.8-1.8a76.37 76.37 0 0 0 7.29-2.41c9-5 16.39-12.09 20.23-19.43a3.82 3.82 0 0 1 6.78 3.55c-4.59 8.76-12.86 16.77-23.3 22.57-1.46 0.81-4.16 1.65-8.79 3-4.13 1.25-11.7 3.53-13.55 4.87a3.83 3.83 0 0 1-3.32 1.88z m3.62-2.59z" fill="#020202" p-id="2468"></path><path d="M772 656.13c-18.28-49.57-44.1-109.48-33.15-163.56 2-9.65 8.92-17.92 19.64-16.16 6.53 1.07 12.11 5.39 16.49 10.35 16.22 18.36 18.68 46.75 20.37 70.35a444.75 444.75 0 0 1 0.33 49.9c-0.62 15.2 0.22 31.95-4.18 46.62" fill="#FCFCFC" p-id="2469"></path><path d="M772 660.5a4.37 4.37 0 0 1-4.1-2.86c-1.75-4.73-3.56-9.56-5.4-14.46-17.85-47.5-38.08-101.34-27.94-151.47 2.73-13.47 12.86-21.54 24.62-19.61 6.72 1.1 13.13 5.06 19.06 11.77 17.67 20 19.86 50.59 21.45 72.93a446 446 0 0 1 0.34 50.39c-0.14 3.3-0.2 6.63-0.27 10.15-0.24 12.56-0.49 25.54-4.09 37.55a4.37 4.37 0 0 1-8.37-2.51c3.26-10.87 3.5-23.24 3.73-35.21 0.07-3.41 0.13-6.94 0.27-10.33a437.71 437.71 0 0 0-0.32-49.41c-1.51-21.09-3.57-50-19.28-67.77-4.56-5.16-9.25-8.17-13.93-8.93-8.62-1.41-13.28 6-14.65 12.71-9.65 47.68 10.11 100.27 27.55 146.66 1.85 4.92 3.67 9.77 5.42 14.51a4.37 4.37 0 0 1-4.1 5.88z" fill="#020202" p-id="2470"></path><path d="M759.055217 631.252239a29.92 13.2 81.84 1 0 26.132715-3.74716 29.92 13.2 81.84 1 0-26.132715 3.74716Z" fill="#020202" p-id="2471"></path><path d="M645 679.63c-33.52-35-57.54-78.27-67.05-126-3.41-17.11-5-34.73-2.78-52 1.2-9.39 4.08-19.5 11.92-24.82 7.57-5.14 18-4.26 26.18-0.18 10.48 5.22 20.48 15.37 27.51 24.63 19.4 25.58 28.86 58.79 32.85 90.22 3.68 29 5.71 62 1.16 91" fill="#FCFCFC" p-id="2472"></path><path d="M674.83 686.8a4.37 4.37 0 0 1-4.32-5c3.8-24.19 3.41-53.54-1.18-89.73-4.65-36.62-15.41-66.27-32-88.13-8.07-10.64-17.54-19.15-26-23.36-7.68-3.83-16.23-3.88-21.78-0.12-5.35 3.63-8.63 10.74-10 21.75-1.93 15.15-1 31.72 2.73 50.64 9.05 45.35 31.85 88.15 65.92 123.75a4.37 4.37 0 1 1-6.31 6c-35.22-36.79-58.8-81.1-68.18-128.14-4-19.86-4.89-37.35-2.83-53.45 1.74-13.65 6.25-22.76 13.8-27.88 8.24-5.59 20-5.77 30.58-0.47 13.63 6.8 24.85 20.38 29 25.9 17.52 23.1 28.86 54.16 33.7 92.31 4.7 37 5.07 67.17 1.15 92.19a4.37 4.37 0 0 1-4.28 3.74z" fill="#020202" p-id="2473"></path><path d="M629.431115 653.272032a32.83 15.5 71.94 1 0 29.472704-9.610396 32.83 15.5 71.94 1 0-29.472704 9.610396Z" fill="#020202" p-id="2474"></path><path d="M628.24 686c-0.06-1.32 9.53-6.19 10.56-6.81a202.8 202.8 0 0 1 20.87-11.33c17.49-7.9 35.4-9.71 54.34-9.28a218 218 0 0 1 25.29 1.77c4.45 0.62 10.36 1.08 14.12 3.85 4.08 3 14.19-9.82 16.68-12 11.77-10.27 27.42-14.53 42.41-8.9 6.17 2.32 11.75 6.63 14.73 12.51 10.43 20.58-4.75 44.22-21.75 55.8-14.75 10-34.86 10.14-51.86 6.8-0.47-0.1-3.67 3.63-4.07 4-11 10.09-24.45 16.38-39.42 17.38-11.89 0.79-24-0.84-35.74-2.65-10.16-1.56-21.87-3.34-30.68-9-13.88-9-15.48-42.14-15.48-42.14z" fill="#FFECD3" p-id="2475"></path><path d="M703.79 744.36c-10.19 0-20.37-1.41-30-2.9h-0.17c-10.62-1.64-22.66-3.49-32.21-9.65-15.52-10-17.35-42.63-17.47-45.57-0.17-3.54 2.69-5.38 11.56-10.16l1.12-0.61a207.47 207.47 0 0 1 21.32-11.57c16-7.2 33.28-10.18 56.24-9.67a225.4 225.4 0 0 1 25.73 1.77l1.63 0.22c4.29 0.56 9.57 1.25 13.68 3.89 2.44-1.06 7.52-6.53 9.26-8.41 1.19-1.28 2.05-2.21 2.74-2.81 13.69-11.95 31.19-15.57 46.82-9.69 7.71 2.9 13.78 8.09 17.09 14.63 11.16 22-3.62 48.06-23.19 61.38-17.21 11.72-39.85 10.2-53.07 7.87-0.51 0.54-1 1.13-1.33 1.44-0.59 0.64-0.8 0.88-1 1.09-12.1 11.09-26.65 17.49-42.08 18.52-2.24 0.17-4.46 0.23-6.67 0.23z m-71.06-56.68c0.75 9.76 4.19 30.82 13.37 36.75 8 5.15 19 6.85 28.8 8.36h0.17c11.3 1.74 23.3 3.38 34.78 2.61 13.4-0.89 26.09-6.49 36.69-16.18l0.55-0.6c3-3.29 4.64-5.09 7.43-4.51 11.42 2.24 33 4.44 48.52-6.14 16.49-11.23 29.21-32.64 20.31-50.21-2.29-4.51-6.8-8.3-12.37-10.4-12.57-4.73-26.77-1.7-38 8.1-0.34 0.3-1.27 1.29-2.08 2.17-5.77 6.22-13.68 14.74-20.06 10-2.4-1.77-6.85-2.34-10.42-2.81l-1.71-0.23a216.87 216.87 0 0 0-24.78-1.73c-21.57-0.48-37.74 2.26-52.45 8.9a199.92 199.92 0 0 0-20.42 11.09c-0.21 0.13-0.75 0.42-1.48 0.81-3.75 2.1-5.78 3.34-6.85 4.03z m120.06 35h0.09z" fill="" p-id="2476"></path><path d="M744.42 647.72c9.18-1 32.73-1 38.31 8.92 9.17 16.25-16.54 45.65-32.33 46.91-14.75 1.17-35-12.07-37.79-27.18-2.52-13.52 22.97-27.67 31.81-28.65z" fill="" p-id="2477"></path><path d="M599.26 659s71.62 37.23 44.24 79.28S519 765.42 519 765.42" fill="#DFA23C" p-id="2478"></path><path d="M557.24 772.41a279.48 279.48 0 0 1-38.91-2.67 4.37 4.37 0 0 1 1.32-8.64c0.94 0.14 94.67 14 120.19-25.24 5.32-8.18 6.79-16.41 4.49-25.18-7-26.76-46.68-47.64-47.08-47.84a4.37 4.37 0 1 1 4-7.75c1.77 0.92 43.49 22.91 51.5 53.37 2.93 11.13 1 21.95-5.61 32.17-17.14 26.37-58.59 31.78-89.9 31.78z" fill="" p-id="2479"></path><path d="M471.8 702a3.28 3.28 0 0 1-0.74-6.47c67.44-15.65 192-8.58 193.2-8.51a3.28 3.28 0 1 1-0.38 6.54c-1.24-0.07-124.82-7.08-191.34 8.35a3.3 3.3 0 0 1-0.74 0.09zM506.4 794.47a3.28 3.28 0 0 1-2.49-5.4c40-46.89 160.36-78 165.47-79.32a3.28 3.28 0 0 1 1.62 6.35c-1.23 0.31-123.5 31.92-162.1 77.22a3.27 3.27 0 0 1-2.5 1.15zM808.89 660.32a3.28 3.28 0 0 1-1.8-6c0.8-0.52 80.51-52.29 154-65.64a3.28 3.28 0 0 1 1.17 6.45c-72.24 13.12-150.84 64.17-151.62 64.68a3.26 3.26 0 0 1-1.75 0.51zM807.08 679.59a3.28 3.28 0 0 1-1.25-6.31c0.87-0.36 21.65-8.84 53.17-13.62 29.11-4.41 73.12-6.26 117.46 10a3.28 3.28 0 0 1-2.25 6.16c-82.34-30.12-165.05 3.23-165.88 3.57a3.26 3.26 0 0 1-1.25 0.2zM323.61 590.44a54.37 54.37 0 0 1-6.39-0.39 19.12 19.12 0 0 1-14.44-9c-10.9-17.3 1.17-54 2.58-58.13a5.46 5.46 0 0 1 10.34 3.53c-4.67 13.7-9.8 39.05-3.67 48.78a8.21 8.21 0 0 0 6.47 3.93c22.07 2.6 27.43-11.82 31.35-22.34 0.47-1.26 0.91-2.44 1.35-3.5a5.46 5.46 0 1 1 10.08 4.22c-0.36 0.85-0.74 1.89-1.19 3.09-3.7 9.96-11.09 29.81-36.48 29.81z" fill="#020202" p-id="2480"></path><path d="M589.17 741.64a69.93 69.93 0 0 1-6.91-9.74c-5.51-9.39-10.55-21.86-7.95-32.92 2.4-10.17 14-16.45 24-15.45 20.52 2 20.39 25.93 34.07 36.66A70.64 70.64 0 0 0 657.55 733c13.41 3.48 22.66 4.6 34.26 6.36 0.56 0.09-3.77 4.19-4.17 4.53a47 47 0 0 1-7.54 5.29 44.18 44.18 0 0 1-24.67 5.38c-2.44-0.19-6.36-2-8.62-1.6-3 0.47-5 3-7.06 5a13.68 13.68 0 0 1-9.14 3.81c-16.21 1.23-31.31-8.16-41.44-20.13z" fill="#F94F4E" p-id="2481"></path><path d="M628.09 766.31c-14.95 0-30.55-8-42.26-21.85a74.28 74.28 0 0 1-7.34-10.36c-5.49-9.39-11.49-23.29-8.43-36.1 3.08-13.06 17.29-19.93 28.68-18.8 14.83 1.47 20.61 12.59 25.72 22.41 3.09 5.94 6 11.54 10.62 15.17a66.52 66.52 0 0 0 23.57 12.07 248.68 248.68 0 0 0 29 5.54l4.86 0.72a4.47 4.47 0 0 1 3.6 3.17c0.41 1.46 1 3.47-5.61 9a51.19 51.19 0 0 1-8.25 5.77 48.79 48.79 0 0 1-27.16 5.95 24.12 24.12 0 0 1-4.38-0.92 16 16 0 0 0-3.28-0.71c-1 0.17-2.28 1.44-3.58 2.78l-1 1a17.94 17.94 0 0 1-11.91 5.06c-0.94 0.07-1.94 0.1-2.85 0.1z m-35.58-27.5c10.66 12.59 24.8 19.57 37.8 18.68a9.34 9.34 0 0 0 6.37-2.56l0.89-0.91c1.93-2 4.57-4.72 8.56-5.34 2.26-0.36 4.62 0.29 6.9 0.92a20.05 20.05 0 0 0 2.74 0.64A40 40 0 0 0 678 745.4a38.8 38.8 0 0 0 4.53-3 237.86 237.86 0 0 1-26.06-5.16 74.36 74.36 0 0 1-26.77-13.65c-6.11-4.79-9.6-11.51-13-18-5.4-10.38-9.19-16.79-18.82-17.74-7.62-0.75-17.41 4-19.31 12.11-2.36 10 2.75 21.68 7.46 29.7a65.6 65.6 0 0 0 6.48 9.13z" fill="#020202" p-id="2482"></path><path d="M611 727.24s5.49 16.39 38 25.87" fill="#F94F4E" p-id="2483"></path><path d="M648.94 757.47a4.38 4.38 0 0 1-1.23-0.18c-34.29-10-40.64-27.92-40.9-28.67a4.37 4.37 0 0 1 8.27-2.83c0.14 0.36 5.87 14.59 35.08 23.11a4.37 4.37 0 0 1-1.22 8.57z" fill="#020202" p-id="2484"></path></svg>