<?xml version="1.0" standalone="no"?><!DOCTYPE svg PUBLIC "-//W3C//DTD SVG 1.1//EN" "http://www.w3.org/Graphics/SVG/1.1/DTD/svg11.dtd"><svg t="1659859658612" class="icon" viewBox="0 0 1024 1024" version="1.1" xmlns="http://www.w3.org/2000/svg" p-id="2974" xmlns:xlink="http://www.w3.org/1999/xlink" width="48" height="48"><defs><style type="text/css">@font-face { font-family: feedback-iconfont; src: url("//at.alicdn.com/t/font_1031158_u69w8yhxdu.woff2?t=1630033759944") format("woff2"), url("//at.alicdn.com/t/font_1031158_u69w8yhxdu.woff?t=1630033759944") format("woff"), url("//at.alicdn.com/t/font_1031158_u69w8yhxdu.ttf?t=1630033759944") format("truetype"); }
</style></defs><path d="M533.29 513.81m-389.4 0a389.4 389.4 0 1 0 778.8 0 389.4 389.4 0 1 0-778.8 0Z" fill="#B4D3B5" p-id="2975"></path><path d="M517.87 932.81A419.21 419.21 0 0 1 132.95 348a8.29 8.29 0 0 1 15.23 6.57 399.7 399.7 0 0 0-32.72 159.2c0 221.89 180.52 402.41 402.41 402.41S920.28 735.7 920.28 513.81v-5.62a8.29 8.29 0 1 1 16.58-0.22v5.84a418.65 418.65 0 0 1-419 419zM871.93 313.84a8.29 8.29 0 0 1-7.15-4.08c-72.13-122.35-205.06-198.35-346.91-198.35a402.58 402.58 0 0 0-260.22 95.44 8.29 8.29 0 0 1-10.73-12.65 419 419 0 0 1 632.14 107.13 8.3 8.3 0 0 1-7.14 12.51z" fill="" p-id="2976"></path><path d="M769.06 495l41.27-57.42s12-6.53 19.25-0.4-35.13 69.56-35.13 69.56l-18.16 19.08-30.17-4z" fill="#FFB415" p-id="2977"></path><path d="M778.45 532l-43.7-5.84 29.73-34.71 41.9-58.3 1.17-0.63c5.78-3.13 17.71-6.59 25.78 0.28 5.32 4.53 4.72 12.95-13.61 44.43-9.66 16.59-20.34 32.62-20.45 32.78l-0.28 0.42z m-21-14.52l16.64 2.22 15.77-16.56c1.59-2.4 9.82-14.9 17.86-28.47 13.3-22.45 16.12-31 16.7-33.84-3.1-1.21-7.74 0.26-10.27 1.36l-40.55 56.43z" fill="" p-id="2978"></path><path d="M796.23 340.55c12.57-9 31.07-18.14 46.93-15.51 12.31 2 22.33 11.14 29.66 21.24C884.18 361.9 896 379 902.93 397.17c6.42 16.79 8.31 35.21-1.61 51.1-11.32 18.23-37.62 28.67-58.52 25.07-23-4-39.21-23.63-52-41.61a178.24 178.24 0 0 1-17.7-30c-2.82-6.28-6.78-14.86-4.94-21.94 4.22-16.2 14.69-29.61 28.07-39.24z" fill="" p-id="2979"></path><path d="M803.94 375.49c-3.8 1.42-7.63 2.8-11.38 4.36a18 18 0 0 0-5.55 3.21c-3.51 3.3-2.91 8.94-1 12.91 12.28 25.25 28.74 56.12 59.59 60.72 17.54 2.62 41.68-7.84 48.46-25.21 2.36-6.05 2.25-12.84 0.85-19.18-3.28-14.83-10.14-28.73-18.32-41.45a203.1 203.1 0 0 0-13.73-18.79c-3.73-4.55-8.93-11.15-15.72-10.14a8.2 8.2 0 0 0-3.84 2c-5 4.08-7.3 10.08-11.4 14.87-4.86 5.63-11.19 9.59-17.9 12.64-3.3 1.5-6.68 2.8-10.06 4.06z" fill="#FFB415" p-id="2980"></path><path d="M318.4 371.61c-7.27 1.26-23.95 29-28.4 34.94-11.34 15.12-21.31 31.75-25.5 50.55-16.66 74.77 18.89 164.62 53.8 228.9 33.69 62.07 83.21 114 149 138.88 89.45 33.9 218.78 19.74 276.39-67.29 12.54-18.95 21.65-40 28.62-61.74 5.17-16.13 2.45-25.81 17.79-34.56 14.75-8.42 23-20.46 30.92-35.94 18.34-35.62 13.55-69.16 3.79-105.52-4.33-16.14-5.31-26.9-19-36-14.57-9.63-32.84-11.91-50-9.84-29.05 3.49-64.54 15.54-88.29 33.58-14.05 10.67-26.69-30.65-28.53-38.34-5-20.83-7.61-42.84-16.34-62.46-8.27-18.59-20.82-31.93-36.07-45.09-38.87-33.55-104.12-15.63-150.15-8.86q-58.36 8.62-116.43 18.51z" fill="#E2C1A6" p-id="2981"></path><path d="M547 863.54c-36.11 0-72-6.2-103.62-17.9-65.46-24.18-121-74.63-160.73-145.88-36.38-65.3-75.89-160-57.53-240.26 4-17.42 12.9-34.7 28-54.39 0.93-1.21 2.58-3.63 4.5-6.43 13.76-20.14 22.05-30.59 29.2-31.8l1.72-0.29c42.05-7 83.51-13.37 123.23-19.07 8.68-1.25 18.22-3 28.32-4.89 46.6-8.65 104.6-19.42 140.41 10.71a149.43 149.43 0 0 1 39.5 52c7.88 17.27 12.25 35.73 16.47 53.58 0.88 3.7 1.75 7.41 2.66 11.1 0.26 1.05 0.57 2.56 1 4.46a186 186 0 0 0 5.67 22.27c3.79 10.95 6.79 12.08 6.86 12.1a3 3 0 0 0 1.1-0.6c23.84-17.66 61.61-31.69 96.22-35.74 15.31-1.79 37.6-1.33 56.79 11 13.58 8.75 24.56 22.77 33.58 42.86 8.79 19.59 13.26 40.43 12.92 60.25-0.38 22.27-7 42.16-19.13 57.52s-28.56 24.67-44.55 32.5c-9.62 4.71-10.62 9.59-12.61 19.31a110.47 110.47 0 0 1-3.25 12.94c-8.38 25.45-18.52 46.75-31 65.14-42.04 61.88-119.51 89.51-195.73 89.51zM289 378.3c-4.61 1.9-17.46 20.72-21.7 26.93-2.1 3.07-3.76 5.5-4.88 7-14.09 18.32-22.33 34.17-25.93 49.9-17.53 76.67 21 168.49 56.35 232 38.32 68.8 91.79 117.43 154.61 140.64 94.33 34.85 227 19.23 285.71-67.23 11.84-17.54 21.47-37.86 29.51-62.27a99.36 99.36 0 0 0 2.9-11.64c2.13-10.38 4.14-20.19 18.88-27.41S814.34 650.45 825 637c24.57-31.11 17.9-76.45 4.72-105.82-8.06-18-17.64-30.36-29.27-37.85-16.3-10.51-35.73-10.84-49.15-9.26-32.75 3.84-68.33 17-90.66 33.54-3.89 2.88-8.22 3.62-12.2 2.1-9.81-3.75-15-19.85-19.71-42.87-0.35-1.71-0.66-3.19-0.86-4-0.91-3.72-1.8-7.46-2.68-11.19-4.1-17.3-8.33-35.19-15.74-51.43a137.71 137.71 0 0 0-36.45-48c-31.61-26.59-86.61-16.38-130.81-8.18-10.22 1.9-19.88 3.69-28.79 5-39.63 5.69-81 12.09-123 19z m0.08 0z" fill="#070707" p-id="2982"></path><path d="M343.83 655.53c-19.45-16.35-43.78-33.33-68.54-36.61-8.64-1.15-17.73 0-25.29 4.78-22 13.84-21.61 45.86-13.45 69 15 42.4 60.35 71.8 100.39 72.29 10.91 0.13 21.62-3.43 31.77-7.47 4.79-1.9 9.52-4.58 12.72-9s4.53-10.81 2.18-15.83" fill="#E2C1A6" p-id="2983"></path><path d="M283.39 675.86c9.17-1.88 18.82-1.6 27.63 2a39.51 39.51 0 0 1 20 18.22 27 27 0 0 1 3.33 13.14c-0.15 4.61-2 9.27-5.47 11.86-2.64 2-5.93 2.62-9.12 2.85-5.91 0.41-12.92-0.11-18.36-2.82-3.92-2-7.35-5.8-7.85-10.53-0.79-7.48 6.31-13.56 12.66-11.38" fill="#E2C1A6" p-id="2984"></path><path d="M331.44 773.29h-0.75c-23.52-0.26-48.49-8-70.32-21.67-22.77-14.31-39.95-34-48.37-55.55-10.73-27.39-9.41-61.93 17.73-77.34 11.32-6.43 23.71-6.58 32.11-5.57 23.93 2.86 49.42 15.06 80.21 38.38a5.81 5.81 0 0 1-7 9.26c-28.68-21.72-53.07-33.54-74.57-36.11-6.67-0.8-16.42-0.73-25 4.14-24.1 13.68-19.29 46-12.65 63 15.14 38.66 62.58 69.34 108 69.84 11.56 0.11 23.11-3.41 33.84-7.26 5.66-2 9.41-4.35 11.8-7.31s3.21-7.12 1.83-9.77a5.81 5.81 0 0 1 10.3-5.33c3.52 6.76 2.28 15.78-3.1 22.43-3.79 4.7-9.17 8.18-16.92 11-11.58 4.05-24 7.86-37.14 7.86z" fill="#070707" p-id="2985"></path><path d="M307.32 732c-5.87 0-13-0.75-19.15-3.53-6.89-3.1-11.65-9.06-12.41-15.56a16.64 16.64 0 0 1 6.08-14.7 17.15 17.15 0 0 1 16-3.39 6.08 6.08 0 1 1-3.6 11.62 5.16 5.16 0 0 0-4.67 1.13 4.58 4.58 0 0 0-1.77 3.93c0.26 2.2 2.39 4.56 5.31 5.87 4.36 2 10.71 2.79 17.86 2.35 3.4-0.21 5.71-0.8 7.25-1.85a9.3 9.3 0 0 0 3.52-7.26 19.41 19.41 0 0 0-3-10.11 37.44 37.44 0 0 0-19.44-15.86c-8.19-3-17.87-3.63-28-1.76a6.08 6.08 0 1 1-2.21-12c12.27-2.26 24.16-1.46 34.4 2.31a49.09 49.09 0 0 1 25.78 21.2 31 31 0 0 1 4.67 16.61 21.2 21.2 0 0 1-8.83 16.87c-4.5 3.06-9.77 3.71-13.34 3.94-1.36 0.09-2.86 0.19-4.45 0.19z" fill="#070707" p-id="2986"></path><path d="M422.37 606.84c25.33 11 53.09 15.55 80.61 15.25 26.19-0.28 54.61-3.1 77.9-15.91 15.15-8.33 5.87 32.9 5.38 37.52-2.42 23.12-3.1 46.44-7.13 69.37-2.69 15.32-7.12 30.86-16.92 42.94-37.84 46.63-99-8.71-123.37-41.39C422 692 409 666.31 397.54 640.56c-3.2-7.2-5.71-10.12-6.55-18.07-0.6-5.74 4.73-12.05 11.84-15.67s14.79-2.05 19.54 0.02z" fill="#020202" p-id="2987"></path><path d="M527 780h-1.14c-36.81-0.77-75.08-39.18-91.89-61.76C415.18 693 401.66 664.78 392 643c-0.77-1.72-1.49-3.19-2.19-4.6-2.21-4.45-4.11-8.3-4.85-15.3-0.84-8 5.24-16.7 15.13-21.72 10.43-5.31 20.77-1.87 24.73-0.14 23.18 10.11 49.45 15.08 78.1 14.76 22.54-0.24 51.44-2.18 75-15.16 6-3.31 10.18-1.47 12.12-0.08 7.26 5.18 6.44 19.3 2.76 40.4-0.22 1.29-0.48 2.75-0.52 3.16-0.82 7.85-1.46 15.9-2.07 23.68-1.19 15.12-2.42 30.76-5.12 46.11-2.44 13.85-6.7 31.57-18.18 45.72C556.09 773.23 542.65 780 527 780zM412.12 610.75a14.28 14.28 0 0 0-6.53 1.5c-5.6 2.85-8.8 7.21-8.55 9.61 0.51 4.83 1.69 7.22 3.65 11.17 0.72 1.46 1.54 3.11 2.41 5.06 9.42 21.18 22.56 48.6 40.65 72.9 20.09 27 54.44 56.28 82.39 56.86 12.32 0.23 22.61-4.87 31.38-15.67 9.72-12 13.47-27.75 15.65-40.16 2.6-14.78 3.8-30.12 5-45 0.62-7.86 1.26-16 2.1-24 0.09-0.82 0.3-2.08 0.64-4 3-17.24 2.86-24.31 2.28-27.21-25.83 13.95-56.33 16-80.09 16.29-30.4 0.29-58.35-5-83.11-15.76a20.48 20.48 0 0 0-7.87-1.59z" fill="#020202" p-id="2988"></path><path d="M393.33 619.83c14.07 9.57 31.69 20 48.12 25.25 19.06 6.14 38.94 10.45 59 10.63 32.34 0.29 59.51-9.38 78.57-25.46l-15.73-12.57s-37.82 11.69-79.82 8.63-80.67-19.49-80.67-19.49l-18 13.39z" fill="#FFFFFF" p-id="2989"></path><path d="M435.71 702.57s9.71-15.46 54.68 0.53 59.24 37.54 64.24 54.22c-12.8 11.51-16.63 11.93-16.63 11.93s-16 13.5-70.5-26.75c-7.26-5.37-18-20.5-18-20.5z" fill="#EB9F81" p-id="2990"></path><path d="M379.33 632.4a6.08 6.08 0 0 1-4.75-9.87c21-26.29 62.8-42 94.2-50.6a252 252 0 0 1 112-4.94 6.08 6.08 0 1 1-2.23 12A239.81 239.81 0 0 0 472 583.66c-29.65 8.09-69 22.72-87.9 46.45a6.07 6.07 0 0 1-4.77 2.29z" fill="" p-id="2991"></path><path d="M559.43 509.9s17.91 13.93 30.84 11.94c8.72-1.34 17.53-8.47 25.14-12.5 13.71-7.27 28.18-13.8 43.64-16.17 34.14-5.23 62.81 15.49 71.62 48.55 11.46 43-4.65 101.28-52.31 113.19-22.65 5.66-47 0.64-67.89-9.72C587.82 634 542.44 606.51 543 577c0.3-14.55 15.18-26.41 29.22-25.9 13 0.46 24.88 10.9 27.06 23.69" fill="#B4D3B5" p-id="2992"></path><path d="M559.67 515.22s14.84 12.39 26.72 10.51a74.11 74.11 0 0 0 23.15-8.29c12.6-6.87 25.9-13 40.1-15.28 31.37-4.94 57.72 14.65 65.82 45.89C726 588.7 711.2 643.79 667.4 655c-20.81 5.35-43.17 0.6-62.39-9.19-20.83-10.61-62.53-36.56-62-64.49 0.27-13.75 13.95-25 26.85-24.49 11.91 0.44 22.87 10.3 24.86 22.39" fill="#E2C1A6" p-id="2993"></path><path d="M658.75 663.06c-16.48 0-34-4.3-50.85-12.67s-71.39-38.15-70.67-73.55c0.16-8 3.77-15.65 10.15-21.69 6.89-6.52 16.28-10.23 25.09-9.9 15.64 0.56 30 13.09 32.57 28.52a5.81 5.81 0 0 1-11.45 1.95c-1.71-10-11.37-18.49-21.54-18.86-5.79-0.24-12 2.31-16.69 6.74-4.1 3.88-6.42 8.67-6.51 13.48-0.46 22.72 34.3 48.09 64.21 62.91 21.86 10.83 44.55 14.13 63.9 9.29 16.16-4 29.54-14.37 38.69-29.89 12.62-21.41 16.23-50.6 9.41-76.17-8.32-31.19-34.5-49-65.13-44.31-15.42 2.36-29.78 9.19-41.8 15.56-2 1.08-4.25 2.45-6.58 3.89-6.12 3.79-13 8.09-20.4 9.22-15 2.31-33.26-11.51-35.29-13.1a5.81 5.81 0 0 1 7.13-9.17c4.15 3.21 17.9 12.1 26.4 10.79 5-0.77 10.62-4.25 16-7.61 2.39-1.48 4.87-3 7.26-4.28 12.88-6.82 28.35-14.15 45.48-16.77 36.21-5.55 68.35 16.16 78.12 52.79 7.59 28.47 3.52 61.06-10.63 85.06-10.76 18.26-26.63 30.45-45.88 35.26a86.7 86.7 0 0 1-20.99 2.51zM542.25 815.23A82.89 82.89 0 0 1 528.2 814c-16.36-2.83-32.08-9.57-46.78-16.23a5.81 5.81 0 1 1 4.79-10.58c14 6.35 29 12.77 44 15.36 9.32 1.61 22.93 2.21 34.84-4.12 14.47-7.69 24.8-24.11 31.57-50.2a5.81 5.81 0 1 1 11.24 2.92c-7.63 29.42-19.86 48.24-37.37 57.54a59.87 59.87 0 0 1-28.24 6.54zM380.33 445.07a5.81 5.81 0 0 1-5.33-3.57c-0.87-2.1-21.1-51.51 6.3-66.53a5.81 5.81 0 0 1 5.58 10.18c-18.05 9.9-1.34 51.46-1.16 51.87a5.81 5.81 0 0 1-5.36 8zM557.19 448.55a5.81 5.81 0 0 1-5.08-3c-10.45-18.76-13.44-34.34-9.11-47.55 2.72-8.37 8.76-16 17-21.56 6.57-4.42 14.51-7.6 24.27-9.73a5.81 5.81 0 1 1 2.46 11.29c-8.3 1.81-14.93 4.43-20.26 8-6.09 4.1-10.51 9.6-12.43 15.51-3.26 10-0.57 22.57 8.23 38.37a5.81 5.81 0 0 1-5.07 8.63z" fill="" p-id="2994"></path><path d="M577.34 502.28h-0.57a5.81 5.81 0 0 1-5.21-6.35c1-10.09 2.8-20.49 9.32-28.19a17.14 17.14 0 0 1 9.27-6 19.07 19.07 0 0 1 10.4 1 49 49 0 0 1 22.3 15.69 5.81 5.81 0 1 1-9.09 7.23 37.19 37.19 0 0 0-16.94-11.92 9 9 0 0 0-4.12-0.68 6.23 6.23 0 0 0-2.95 2.2c-4.46 5.27-5.82 13.6-6.62 21.82a5.81 5.81 0 0 1-5.79 5.2z" fill="" p-id="2995"></path><path d="M450.48 537.31c-6.75-14.14-47.84-96-18.66-103.52 21.23-5.44 44.29 20.44 55.05 35.66a115.56 115.56 0 0 1 16.88 35.24c1.44 5.09 8.37 30.61 1.95 32.62" fill="#FFFFFF" p-id="2996"></path><path d="M505.7 543.12a5.81 5.81 0 0 1-3.27-10.61c0.56-2.75-0.1-11.5-4.26-26.24a109.18 109.18 0 0 0-16-33.46c-13.33-18.81-33.17-37.43-48.91-33.4a6.38 6.38 0 0 0-4.52 3.81c-3.16 6.79-4 27.41 25.84 89.23l1.13 2.35a5.81 5.81 0 1 1-10.48 5l-1.11-2.31c-24.69-51.14-33.16-83.58-25.92-99.18a18 18 0 0 1 12.17-10.16c27-6.93 53.7 27.28 61.24 37.93a120.76 120.76 0 0 1 17.72 37 160.7 160.7 0 0 1 4.07 18.17c0.86 5.63 2.87 18.81-6 21.57a5.79 5.79 0 0 1-1.7 0.3z" fill="" p-id="2997"></path><path d="M429.75 485.18c6.54 2.76 21.08 10.18 30.08 21.49 9.5 11.94 14.43 15.74 16.45 31.24-9.92 1.57-22.22 4.31-22.22 4.31l-11.81-22.72s-15.72-34.72-12.5-34.32z" fill="" p-id="2998"></path><path d="M431.82 554.52a5.81 5.81 0 0 1-1.88-11.3c1.19-0.41 29.3-10 50-11.49a91.41 91.41 0 0 1 39.3 6.06 5.81 5.81 0 0 1-4.61 10.66 81 81 0 0 0-33.83-5.14c-19.18 1.42-46.78 10.8-47.05 10.9a5.8 5.8 0 0 1-1.93 0.31z" fill="" p-id="2999"></path><path d="M585.54 358.79s40.67-22.39 72-12.31" fill="#FCFAFA" p-id="3000"></path><path d="M585.55 364.6a5.81 5.81 0 0 1-2.81-10.9c1.75-1 43.25-23.47 76.59-12.75a5.81 5.81 0 0 1-3.55 11.05c-28.62-9.2-67 11.66-67.43 11.87a5.78 5.78 0 0 1-2.8 0.73z" fill="" p-id="3001"></path><path d="M671.27 399a5.8 5.8 0 0 1-4.54-2.18c-18.74-23.46-46.41-29.47-71-32.26A5.81 5.81 0 1 1 597 353c27 3.05 57.4 9.78 78.78 36.55a5.81 5.81 0 0 1-4.53 9.43zM773.57 689h-0.59a6.08 6.08 0 0 1-5.47-6.64c0.73-7.55-2.65-19.17-4-23a6.08 6.08 0 0 1 11.49-4.12c0.24 0.67 5.79 16.49 4.65 28.24a6.08 6.08 0 0 1-6.08 5.52z" fill="" p-id="3002"></path><path d="M282.58 252.48c0.87 0.37 17.22-14.58 18.94-15.89a269.65 269.65 0 0 1 30.16-20.18c21.16-12 44.6-20.76 69.16-22.21 31.17-1.84 62.35 8.13 88.64 24.74 25.93 16.38 56.21 42.6 69.19 70.77 7 15.17-127.91 26.46-127.91 26.46z" fill="#FCFAFA" p-id="3003"></path><path d="M440.78 322a5.8 5.8 0 0 1-2.32-0.48l-158.2-68.96a5.81 5.81 0 0 1 0.14-10.71c2.26-1.63 9.81-8.4 13.54-11.75 3.18-2.85 4.61-4.13 5.3-4.66a291.34 291.34 0 0 1 32.85-22.28c25.95-15 51.65-23.32 76.39-24.81 32.37-1.94 67.21 7.9 98.11 27.69 13.26 8.5 57.95 39.3 76 79.08a8.69 8.69 0 0 1-0.47 8.19c-2.11 3.6-7.17 8-28.68 13.06-11.85 2.8-27.67 5.58-47 8.26-32.77 4.55-64.88 7.29-65.21 7.32z m-147-76.19l148 64.46c6.51-0.58 33.82-3.09 61.89-6.95 51.2-7 64.29-12.84 67.6-15.12-17.28-36-58.51-64.42-70.9-72.35-28.85-18.48-61.22-27.66-91.15-25.87-22.93 1.37-46.91 9.2-71.28 23.27a279.87 279.87 0 0 0-31.55 21.4c-0.46 0.36-2.69 2.36-4.65 4.13-2.44 2.12-5.32 4.7-7.95 7z m-8.9-3.88z m0 0z m0 0z m0 0z m0 0z m0 0z m0 0z m0 0z m0 0z m0 0z m0 0z m-0.2-0.08l0.2 0.08z m0 0z m0 0z m0 0z" fill="" p-id="3004"></path><path d="M437 398.07c32-1.08 64.22-9.28 91.55-25.72 26.06-15.67 43.06-46.4 73.27-55.22 20.19-5.89 42.61-0.37 62.28-8.56 5.66-2.36 10.85-7.17 11.38-13.28 0.34-3.94-1.3-7.8-3.33-11.2-5.85-9.82-15.17-17.35-25.65-21.89-49-21.17-99.72 20.42-149.3 20.16-31.8-0.16-58.89-15.28-87.94-25.83-32.6-11.83-66.73-21-101.55-22.2-37.71-1.32-76.66 7.38-107 29.86-8.62 6.4-16.59 14-21.78 23.38-18.87 34.13 16.1 62.51 46.36 71 6.07 1.71 12.79 1.88 18.49-0.83 4.61-2.2 8.27-6.18 12.05-9.52a4.73 4.73 0 0 1 2.92-1.51c7.72 0 9.09 35.9 10.19 41.62a7.14 7.14 0 0 0 1.46 3.67c4.78 5.06 12.08 0.39 16.69-2.1a81.15 81.15 0 0 1 20.2-7.57c33.52-7.72 67.23 11.38 100.35 14.73a218.55 218.55 0 0 0 29.36 1.01z" fill="#B4D3B5" p-id="3005"></path><path d="M436.63 398.08c29.68-0.94 59.48-8.1 84.79-22.45 24.13-13.68 40.42-43.11 68.4-50.8 18.7-5.14 32.17-8.64 56.73-12 5.57-0.76 10.47 0.87 11-4.46 0.31-3.44-1.2-6.8-3.08-9.77-5.41-8.57-14-15.15-23.76-19.1-45.41-18.5-92.41 10.09-138.32 9.86-29.46-0.14-54.54-7.81-81.46-17C380.73 262 349.12 254 316.87 253c-34.92-1.15-71 8.65-99.07 28.27-8 5.58-15.36 12.21-20.17 20.41-17.48 29.79 14.91 54.56 42.94 62 5.62 1.49 12.21-10.46 17.48-12.83 4.27-1.92 7.3 6.71 10.81 3.79a4.47 4.47 0 0 1 2.7-1.32c7.15 0 5 32 6 37 0.23 1.14 4 1.68 4.84 2.53 4.42 4.42 11.19 0.34 15.46-1.83a78.09 78.09 0 0 1 18.71-6.61c31-6.74 62.27 9.93 92.95 12.86a214.75 214.75 0 0 0 27.11 0.81z" fill="#FCFAFA" p-id="3006"></path><path d="M429.66 404a224.91 224.91 0 0 1-22.6-1.14c-12.67-1.28-25.41-4.78-37.72-8.16-21.08-5.78-41-11.25-60.74-6.7a75.26 75.26 0 0 0-18.75 7l-1.09 0.6c-4.9 2.7-15.09 8.3-22.58 0.37a12.54 12.54 0 0 1-3-6.55c-0.29-1.48-0.53-4-0.87-7.6-0.49-5.15-1.17-12.2-2.23-18.41a55.47 55.47 0 0 0-2.21-9.25l-0.6 0.55c-3.11 2.89-6.64 6.16-11 8.26-6.4 3.05-14.42 3.47-22.56 1.18-18.53-5.21-43.42-19.08-52.58-41-5.21-12.48-4.27-25.76 2.72-38.4 5-9 12.62-17.24 23.4-25.24 28.95-21.47 68.24-32.48 110.62-31 31.1 1.09 63.94 8.25 103.33 22.55 7.13 2.59 14.2 5.47 21 8.25 21.58 8.8 42 17.11 65 17.23h0.44c18.74 0 37.61-6.22 57.59-12.8 30.55-10.06 62.14-20.47 93.55-6.89 12.07 5.22 22.14 13.83 28.34 24.25 3.17 5.32 4.51 10.11 4.12 14.67-0.78 9.12-8.22 15.35-14.93 18.14-11.72 4.88-24 5.29-35.9 5.69-9.52 0.32-18.52 0.62-27 3.09-16.52 4.82-28.91 16.89-42 29.67-9.19 9-18.7 18.22-29.88 24.95-26.92 16.2-59.55 25.37-94.35 26.55q-3.76 0.14-7.52 0.14zM324 374.72c16.44 0 32.64 4.45 48.45 8.78 12.4 3.4 24.11 6.62 35.82 7.8a213.19 213.19 0 0 0 28.53 1c32.83-1.1 63.52-9.71 88.75-24.89 10-6 18.64-14.43 27.76-23.31 13.56-13.21 27.57-26.87 46.87-32.51 9.87-2.88 20-3.22 29.85-3.55 11.35-0.38 22.06-0.74 31.82-4.8 3.66-1.53 7.5-4.72 7.82-8.41 0.18-2-0.65-4.57-2.53-7.73-5-8.33-13.12-15.27-23-19.53-27.36-11.82-55.51-2.55-85.31 7.26-20.13 6.63-40.92 13.47-61.72 13.38-25.24-0.13-47.63-9.26-69.29-18.08-6.73-2.74-13.69-5.58-20.61-8.09-38.21-13.87-69.92-20.81-99.77-21.86-39.76-1.39-76.45 8.81-103.3 28.72-9.42 7-16 14-20.16 21.53-5.29 9.56-6 19.09-2.17 28.3 7.08 16.95 27.71 29.45 45 34.31 5.43 1.53 10.55 1.36 14.41-0.49 2.81-1.34 5.4-3.74 8.14-6.29 0.86-0.79 1.71-1.58 2.56-2.34a10.23 10.23 0 0 1 6.74-3c10.53 0 12.93 16.51 15.16 39.82 0.27 2.86 0.53 5.57 0.71 6.51 0.08 0.42 0.15 0.74 0.21 0.94 1.52 1 5.76-1.32 8.34-2.74l1.19-0.65a86.88 86.88 0 0 1 21.73-8.11 79.66 79.66 0 0 1 18-1.97z m-49.08 13.67z" fill="" p-id="3007"></path><path d="M260 352.75a6.08 6.08 0 0 1-5.08-2.74c-6.5-9.87-26.65-20.77-33.87-24.14a6.08 6.08 0 0 1 5.14-11c1.19 0.55 29.15 13.71 38.88 28.47a6.08 6.08 0 0 1-5.07 9.43z" fill="" p-id="3008"></path></svg>